<?xml version="1.0" encoding="UTF-8" standalone="no"?>
<!-- Created with Inkscape (http://www.inkscape.org/) -->
<!-- Created by T`aZ anno 2006. -->
<!-- This document is dedicated to the public domain. -->
<svg
   xmlns:svg="http://www.w3.org/2000/svg"
   xmlns="http://www.w3.org/2000/svg"
   version="1.0"
   width="64"
   height="64"
   id="svg1364">
  <defs
     id="defs1366" />
  <g
     id="layer1">
    <g
       id="layer4">
      <g
         transform="translate(0.996333,-0.336405)"
         id="g4653">
        <path
           d="M 8.0117076,45.092918 C 5.0252186,42.766638 3.460052,39.006642 3.6731393,35.207127 C 3.6971667,30.016617 3.5873343,24.798253 3.7107146,19.62027 C 3.7997952,9.0173926 15.351909,3.4622856 24.923458,4.0253779 C 29.496037,3.9324072 34.097195,4.9989825 37.954353,7.5164548 C 44.8717,11.785235 51.231954,16.417686 57.949822,20.996101 C 60.401326,22.753428 52.25746,32.168008 48.051025,38.045887 C 42.138692,34.256627 34.595939,29.563521 27.738842,27.587702 C 26.44028,27.068906 20.481203,27.020358 23.850339,28.764706 C 29.550242,32.386742 35.534841,36.469138 39.423563,39.975512 L 29.888016,59.223626 C 29.888016,59.223626 15.758316,50.91754 8.0117076,45.092918 z M 33.288666,60.545017 C 35.896481,57.850509 38.39952,55.056481 40.969593,52.325932 C 40.970267,48.592525 40.970941,44.859119 40.971615,41.125713 C 37.795088,39.199455 34.750833,37.028554 31.449114,35.328863 C 29.459446,36.179744 28.042196,38.494768 26.29575,39.918876 C 25.430116,40.775779 24.564482,41.632683 23.698849,42.489586 C 18.789201,39.267073 13.926674,35.974576 9.1133757,32.610239 C 6.9850178,31.291713 4.6926162,28.138694 3.6716439,26.182751 C 5.0752151,31.337179 11.182561,34.317931 15.117793,37.22891 C 17.990057,39.199781 20.888881,41.131606 23.771341,43.087513 C 23.771341,46.879843 23.771341,50.672174 23.771341,54.464504 C 26.708823,56.64587 29.732989,58.714981 32.770673,60.750303 L 33.052005,60.768543 L 33.288667,60.545017 L 33.288666,60.545017 z M 53.678688,39.208595 C 55.449225,37.094476 57.225347,34.983456 59.074203,32.937035 C 59.075005,29.473809 59.075806,26.010583 59.076607,22.547358 C 56.554018,20.626836 53.699586,19.102499 51.137312,17.290808 C 49.246451,15.97657 47.53014,20.158957 45.762219,21.056829 C 44.837565,21.625886 43.882262,23.934334 42.732592,22.67026 C 38.055471,19.55602 33.312247,16.124061 27.753647,14.844782 C 23.657903,14.246448 18.852251,14.536794 16.034542,18.006049 C 14.669716,19.08868 14.219955,22.767757 15.15737,23.131502 C 14.107177,19.478792 17.446574,16.195308 20.826011,15.547907 C 24.703549,14.337011 28.867007,15.071025 32.438049,16.869449 C 36.313872,18.917107 39.996956,21.343631 43.619576,23.813602 C 43.619576,27.455835 43.619576,31.098067 43.619576,34.740299 C 46.563896,36.513618 49.151923,38.832257 52.146354,40.493954 C 52.826462,40.337467 53.233727,39.684975 53.678688,39.208595 z M 15.255663,23.355527 C 19.816083,26.786784 20.845991,26.698975 23.315939,28.500393"
           style="fill:#ff0000;fill-opacity:1;stroke:#cc0f00;stroke-width:1.29999995;stroke-linecap:round;stroke-linejoin:round;stroke-miterlimit:4;stroke-dasharray:none;stroke-opacity:1"
           id="path1843" />
        <g
           transform="translate(52.94106,4.5)"
           id="g4637">
          <g
             id="g4641">
            <g
               id="g4713" />
          </g>
        </g>
        <g
           transform="translate(70.11026,-13.5)"
           id="g4645" />
      </g>
      <path
         d="M 16.158076,22.499805 C 16.376971,20.427181 15.560168,13.749376 25.131717,14.312468 C 29.704296,14.219497 36.435384,17.740853 43.153254,22.319268 C 45.604758,24.076595 43.696664,28.619478 44.167058,35.081961 C 38.254725,31.292701 35.58367,28.938009 28.726573,26.96219 C 27.428011,26.443394 21.468934,26.394846 24.83807,28.139194 C 30.537973,31.76123 40.030194,40.715324 40.411294,39.35 C 40.411294,39.35 18.673139,24.935245 16.158076,22.499805 z M 17.022273,17.380537 C 15.657447,18.463168 15.207686,22.142245 16.145101,22.50599 C 15.094908,18.85328 19.839982,13.911282 17.022273,17.380537 z M 16.243394,22.730015 C 20.803814,26.161272 21.833722,26.073463 24.30367,27.874881"
         style="fill:#d70000;fill-opacity:1;stroke:#960f00;stroke-width:1.29999995;stroke-linecap:round;stroke-linejoin:round;stroke-miterlimit:4;stroke-dasharray:none;stroke-opacity:1"
         id="path4772" />
    </g>
    <g
       id="layer2">
      <path
         d="M 24.988247,55.536077 L 34.988247,62.002794 L 42.988247,53.536077 L 42.988247,40.536077 L 33.183115,33.951473 L 24.988247,42.126268 L 24.988247,55.536077 z "
         style="fill:#64ff00;fill-opacity:1;fill-rule:evenodd;stroke:#00c800;stroke-width:1px;stroke-linecap:butt;stroke-linejoin:miter;stroke-opacity:1"
         id="path2815" />
    </g>
    <g
       id="layer3">
      <path
         d="M 44.981652,35.130367 L 53.937186,41.050294 L 61.101615,33.299476 L 61.101615,21.398685 L 52.146079,15.906012 L 44.981652,22.854419 L 44.981652,35.130367 z "
         style="fill:#64ff00;fill-opacity:1;fill-rule:evenodd;stroke:#00c800;stroke-width:0.90499997;stroke-linecap:butt;stroke-linejoin:miter;stroke-miterlimit:4;stroke-dasharray:none;stroke-opacity:1"
         id="path3691" />
      <path
         d="M 42.062503,40.749173 L 34.911524,48.761434 L 34.934201,61.05117"
         style="fill:none;fill-opacity:0.75;fill-rule:evenodd;stroke:#00c800;stroke-width:1px;stroke-linecap:round;stroke-linejoin:round;stroke-opacity:1"
         id="path4627" />
      <path
         d="M 34.5,48.5 L 25.648452,42.328226"
         style="fill:none;fill-opacity:0.75;fill-rule:evenodd;stroke:#00c800;stroke-width:1px;stroke-linecap:round;stroke-linejoin:round;stroke-opacity:1"
         id="path4629" />
      <path
         d="M 60.5,21.971994 L 54.274644,28.376593 L 54.15117,40.017727"
         style="fill:none;fill-opacity:0.75;fill-rule:evenodd;stroke:#00c800;stroke-width:1px;stroke-linecap:round;stroke-linejoin:round;stroke-opacity:1"
         id="path4647" />
      <path
         d="M 53.889655,28.454648 L 45.810816,23.141068"
         style="fill:none;fill-opacity:0.75;fill-rule:evenodd;stroke:#00c800;stroke-width:1.06885529px;stroke-linecap:round;stroke-linejoin:round;stroke-opacity:1"
         id="path4649" />
    </g>
  </g>
</svg>
