<?xml version="1.0" encoding="UTF-8"?>
<!DOCTYPE svg PUBLIC "-//W3C//DTD SVG 1.0//EN" "http://www.w3.org/TR/2001/REC-SVG-20010904/DTD/svg10.dtd">
<svg width="93mm" height="93mm" viewBox="0 0 9300 9300">
 <g style="stroke:none;fill:rgb(121,121,178)">
  <path d="M 2628,8057 L 1993,7810 4299,7155 2887,6758 353,7175 0,7016 4727,6275 9225,6963 8854,7193 6549,6755 5347,7154 7884,7775 7443,8039 4865,7314 2628,8057 Z M 6044,6659 L 4780,6487 3439,6664 4786,7016 6044,6659 Z"/>
 </g>
 <g style="stroke:none;fill:rgb(0,0,128)">
  <path d="M 4752,1750 L 9250,750 9250,6997 4752,6368 4752,1750 Z M 5083,3778 L 6417,3687 6417,1956 5083,2200 5083,3778 Z M 6917,3656 L 8584,3561 8584,1562 6917,1864 6917,3656 Z M 5083,5880 L 6417,5996 6417,4264 5083,4303 5083,5880 Z M 6917,6044 L 8584,6223 8584,4225 6917,4252 6917,6044 Z"/>
 </g>
 <g style="stroke:none;fill:rgb(121,121,178)">
  <path d="M 4750,1773 L 2,999 2,6996 4749,6378 4750,1773 Z M 4398,3811 L 2991,3771 2991,2073 4398,2244 4398,3811 Z M 2463,3755 L 704,3693 704,1766 2463,2005 2463,3755 Z M 4397,5901 L 2990,6038 2990,4338 4397,4333 4397,5901 Z M 2462,6089 L 703,6261 703,4333 2462,4338 2462,6089 Z"/>
 </g>
 <g style="stroke:none;fill:rgb(0,0,128)">
  <path d="M 52,1019 L 528,895 2952,1327 4312,1043 2028,631 2627,525 4836,934 7390,401 7884,507 5348,1029 6463,1235 8783,684 9224,772 4744,1795 4733,1793 52,1019 Z M 5994,1347 L 4827,1136 3459,1418 4737,1645 5994,1347 Z"/>
  <path d="M 2,985 L 5499,0 5499,9246 2,7059 2,985 Z M 406,3724 L 2036,3868 2036,1477 406,1628 406,3724 Z M 2647,3917 L 4684,4060 4684,1149 2647,1411 2647,3917 Z M 406,6517 L 2036,7057 2036,4665 406,4422 406,6517 Z M 2647,7260 L 4684,7942 4684,5031 2647,4753 2647,7260 Z"/>
 </g>
 <g style="stroke:none;fill:rgb(121,121,178)">
  <path d="M 9250,756 L 5502,0 5502,9248 9250,6999 9250,756 Z M 8973,3582 L 7861,3777 7861,1343 8973,1433 8973,3582 Z M 7445,3843 L 6056,4040 6056,1117 7445,1300 7445,3843 Z M 8973,6449 L 7861,7021 7861,4588 8973,4299 8973,6449 Z M 7445,7233 L 6056,7939 6056,5016 7445,4690 7445,7233 Z"/>
 </g>
</svg>