/* XPM */
static char * booklib_xpm[] = {
"15 16 7 1",
" 	c None",
".	c #000000",
"+	c #848484",
"@	c #FF0000",
"#	c #C6C6C6",
"$	c #4C4C4C",
"%	c #C0C0C0",
"  .   . ..     ",
" +.+  . . .    ",
".@.#+ . ..++   ",
".@.#+ .+.#.+   ",
".@...+.#..++.. ",
".@###$##%##+#@.",
".@###$####++#@.",
".@###$##%##+#@.",
".@###$####++#@.",
".@###$##%##+#@.",
".@@##$####++#@.",
" .@@#$##$$$$#@.",
"  .@#$$$#####@.",
"  .@$$@@@@@@@@.",
"  .@@@.........",
"   ...         "};
