/* XPM */
static char * bookshav_xpm[] = {
"15 16 7 1",
" 	c None",
".	c #848484",
"+	c #000000",
"@	c #00FF00",
"#	c #C6C6C6",
"$	c #4C4C4C",
"%	c #C0C0C0",
"  .++ + +  ++  ",
" .+.  + + + +  ",
"+@+++ +++.+++  ",
"+@##+ +.+#+.+  ",
"+@++#.+#+#+.++ ",
"+@###$##%##.#@+",
"+@###$####..#@+",
"+@###$##%##.#@+",
"+@###$####..#@+",
"+@###$##%##.#@+",
"+@@##$####..#@+",
" +@@#$##$$$$#@+",
"  +@#$$$#####@+",
"  +@$$@@@@@@@@+",
"  +@@@+++++++++",
"   +++         "};
