/* XPM */
static char *chip[] = {
/* width height num_colors chars_per_pixel */
"    16    16      242            2",
/* colors */
".. c #000000",
".# c #010101",
".a c #030303",
".b c #040404",
".c c #060606",
".d c #0b0b0b",
".e c #0c0c0c",
".f c #0f0f0f",
".g c #101010",
".h c #111111",
".i c #121212",
".j c #131313",
".k c #141414",
".l c #151515",
".m c #161616",
".n c #171717",
".o c #181818",
".p c #191919",
".q c #1a1a1a",
".r c #1b1b1b",
".s c #1c1c1c",
".t c #1d1d1d",
".u c #1e1e1e",
".v c #1f1f1f",
".w c #202020",
".x c #212121",
".y c #222222",
".z c #232323",
".A c #242424",
".B c #252525",
".C c #262626",
".D c #272727",
".E c #282828",
".F c #292929",
".G c #2a2a2a",
".H c #2b2b2b",
".I c #2c2c2c",
".J c #2d2d2d",
".K c #2e2e2e",
".L c #2f2f2f",
".M c #303030",
".N c #313131",
".O c #323232",
".P c #333333",
".Q c #343434",
".R c #353535",
".S c #363636",
".T c #373737",
".U c #383838",
".V c #393939",
".W c #3a3a3a",
".X c #3b3b3b",
".Y c #3c3c3c",
".Z c #3d3d3d",
".0 c #3e3e3e",
".1 c #3f3f3f",
".2 c #404040",
".3 c #414141",
".4 c #424242",
".5 c #434343",
".6 c #444444",
".7 c #454545",
".8 c #464646",
".9 c #474747",
"#. c #484848",
"## c #494949",
"#a c #4a4a4a",
"#b c #4b4b4b",
"#c c #4c4c4c",
"#d c #4d4d4d",
"#e c #4e4e4e",
"#f c #4f4f4f",
"#g c #505050",
"#h c #515151",
"#i c #525252",
"#j c #535353",
"#k c #545454",
"#l c #555555",
"#m c #565656",
"#n c #575757",
"#o c #585858",
"#p c #595959",
"#q c #5a5a5a",
"#r c #5b5b5b",
"#s c #5c5c5c",
"#t c #5d5d5d",
"#u c #5e5e5e",
"#v c #5f5f5f",
"#w c #606060",
"#x c #616161",
"#y c #626262",
"#z c #636363",
"#A c #646464",
"#B c #656565",
"#C c #666666",
"#D c #676767",
"#E c #686868",
"#F c #696969",
"#G c #6a6a6a",
"#H c #6b6b6b",
"#I c #6c6c6c",
"#J c #6d6d6d",
"#K c #6e6e6e",
"#L c #6f6f6f",
"#M c #707070",
"#N c #717171",
"#O c #727272",
"#P c #737373",
"#Q c #747474",
"#R c #757575",
"#S c #767676",
"#T c #777777",
"#U c #787878",
"#V c #797979",
"#W c #7a7a7a",
"#X c #7b7b7b",
"#Y c #7c7c7c",
"#Z c #7d7d7d",
"#0 c #7e7e7e",
"#1 c #7f7f7f",
"#2 c #808080",
"#3 c #818181",
"#4 c #828282",
"#5 c #838383",
"#6 c #848484",
"#7 c #858585",
"#8 c #868686",
"#9 c #878787",
"a. c #888888",
"a# c #898989",
"aa c #8a8a8a",
"ab c #8b8b8b",
"ac c #8c8c8c",
"ad c #8d8d8d",
"ae c #8e8e8e",
"af c #8f8f8f",
"ag c #909090",
"ah c #919191",
"ai c #929292",
"aj c #939393",
"ak c #949494",
"al c #959595",
"am c #969696",
"an c #979797",
"ao c #989898",
"ap c #999999",
"aq c #9a9a9a",
"ar c #9b9b9b",
"as c #9c9c9c",
"at c #9d9d9d",
"au c #9e9e9e",
"av c #9f9f9f",
"aw c #a0a0a0",
"ax c #a1a1a1",
"ay c #a2a2a2",
"az c #a3a3a3",
"aA c #a4a4a4",
"aB c #a5a5a5",
"aC c #a6a6a6",
"aD c #a7a7a7",
"aE c #a8a8a8",
"aF c #a9a9a9",
"aG c #aaaaaa",
"aH c #ababab",
"aI c #acacac",
"aJ c #adadad",
"aK c #aeaeae",
"aL c #afafaf",
"aM c #b0b0b0",
"aN c #b1b1b1",
"aO c #b2b2b2",
"aP c #b3b3b3",
"aQ c #b4b4b4",
"aR c #b5b5b5",
"aS c #b6b6b6",
"aT c #b7b7b7",
"aU c #b8b8b8",
"aV c #b9b9b9",
"aW c #bababa",
"aX c #bbbbbb",
"aY c #bcbcbc",
"aZ c #bdbdbd",
"a0 c #bebebe",
"a1 c #bfbfbf",
"a2 c #c0c0c0",
"a3 c #c1c1c1",
"a4 c #c2c2c2",
"a5 c #c3c3c3",
"a6 c #c4c4c4",
"a7 c #c5c5c5",
"a8 c #c6c6c6",
"a9 c #c7c7c7",
"b. c #c8c8c8",
"b# c #c9c9c9",
"ba c #cacaca",
"bb c #cbcbcb",
"bc c #cccccc",
"bd c #cdcdcd",
"be c #cecece",
"bf c #cfcfcf",
"bg c #d0d0d0",
"bh c #d1d1d1",
"bi c #d2d2d2",
"bj c #d3d3d3",
"bk c #d4d4d4",
"bl c #d5d5d5",
"bm c #d6d6d6",
"bn c #d7d7d7",
"bo c #d8d8d8",
"bp c #d9d9d9",
"bq c #dadada",
"br c #dbdbdb",
"bs c #dcdcdc",
"bt c #dddddd",
"bu c #dedede",
"bv c #dfdfdf",
"bw c #e0e0e0",
"bx c #e1e1e1",
"by c #e2e2e2",
"bz c #e3e3e3",
"bA c #e4e4e4",
"bB c #e5e5e5",
"bC c #e6e6e6",
"bD c #e7e7e7",
"bE c #e8e8e8",
"bF c #e9e9e9",
"bG c #eaeaea",
"bH c #ebebeb",
"bI c #ececec",
"bJ c #ededed",
"bK c #eeeeee",
"bL c #efefef",
"bM c #f0f0f0",
"bN c #f1f1f1",
"bO c #f2f2f2",
"bP c #f3f3f3",
"bQ c #f4f4f4",
"bR c #f5f5f5",
"bS c #f6f6f6",
"bT c #f7f7f7",
"bU c #f8f8f8",
"bV c None",
/* pixels */
"bVbVbVbVbVbVbVbVbVbVbVbVbVbVbVbV",
"bVbVbVbVbVbVbVbVbVbVbVbVbVbVbVbV",
"bVbVbVbVa#bb.ZbVbVbVbVbVbVbVbVbV",
"bVbVbVbVao##.U.9#cbVbVbVbVbVbVbV",
"bVabarbe#Y.6.1.x.P.CbpbVbVbVbVbV",
"bVas#W..#w#K#y.4.9#m.8#bbVbVbVbV",
"bVaaahaL#Xaj#r#K#s.5#C#n.HbVbVbV",
"bV#DaRaT#I.NaP#M#4#y#..0#cagbVbV",
"bV#FaJ#8#Jaqbeas#Z#A#Uaka8bbab#C",
"bVbVa7an#Eaqbi#O.FbS.9bbbobsbiaG",
"bVbVbVbhaG#G#P#gasa4aCa7#Xa4aPaI",
"bVbVbVbsbVaz#4#SaObiap#sadaFaO.Y",
"bVbVbVbVbVbVb.aKaD#Hasac#9aJba.e",
"bVbVbVbVbVbVbVbs#6#N#SaH#R#9aYbw",
"bVbVbVbVbVbVbVbVbAaYaHakawa2bmbB",
"bVbVbVbVbVbVbVbVbVbVbs#lbebVbVbV"
};
