/* XPM */
static char * clanbomber_red_xpm[] = {
"16 16 83 1",
" 	c None",
".	c #70706E",
"+	c #B5940C",
"@	c #B59200",
"#	c #D3AA00",
"$	c #4A3C00",
"%	c #BA7E7E",
"&	c #DAA5A5",
"*	c #D38B8B",
"=	c #A43131",
"-	c #440404",
";	c #7D2B2C",
">	c #CDB6AE",
",	c #FAE79A",
"'	c #544D27",
")	c #C07D7D",
"!	c #F8EAEA",
"~	c #F4DEDE",
"{	c #E1ACAC",
"]	c #D58E8E",
"^	c #D18585",
"/	c #9B2121",
"(	c #360000",
"_	c #7D1F21",
":	c #1D1419",
"<	c #D59494",
"[	c #F5E1E1",
"}	c #DFA7A7",
"|	c #C56B6B",
"1	c #B95353",
"2	c #AE3F3F",
"3	c #2F0000",
"4	c #2D0000",
"5	c #A94A4A",
"6	c #E8BEBE",
"7	c #AC3C3C",
"8	c #A22B2B",
"9	c #961A1A",
"0	c #820202",
"a	c #C97373",
"b	c #B85151",
"c	c #A02828",
"d	c #941717",
"e	c #880909",
"f	c #7E0000",
"g	c #490000",
"h	c #410606",
"i	c #B64D4D",
"j	c #780000",
"k	c #620000",
"l	c #460000",
"m	c #310000",
"n	c #921515",
"o	c #971B1B",
"p	c #760000",
"q	c #600000",
"r	c #4C0000",
"s	c #380000",
"t	c #2C0000",
"u	c #5B0000",
"v	c #590000",
"w	c #330000",
"x	c #3F0000",
"y	c #240000",
"z	c #320000",
"A	c #3C0000",
"B	c #560000",
"C	c #450000",
"D	c #510000",
"E	c #650000",
"F	c #260000",
"G	c #420000",
"H	c #500000",
"I	c #700000",
"J	c #7C0000",
"K	c #2A0000",
"L	c #690000",
"M	c #810101",
"N	c #220000",
"O	c #1E0101",
"P	c #310202",
"Q	c #370000",
"R	c #270000",
"                ",
"           .+@#$",
"     %&*=-;>,'  ",
"   )!~{]^/((_:  ",
"  <[}^|12/344   ",
" 56^|17890444   ",
" a|b7cdefg4444  ",
"hi7cdejkl44444  ",
"mnoepqrs444434  ",
"tsuvls34444wxw  ",
"y44444444zAgBw  ",
" 4444443sCDEu4  ",
" F4443(GHuIJA   ",
"  K4(GruLfMl4   ",
"   N(HkIjqs4    ",
"     OPQmR      "};
