/* XPM */
static char * clanbomber_yellow_xpm[] = {
"16 16 63 1",
" 	c None",
".	c #70706E",
"+	c #B5940C",
"@	c #B59200",
"#	c #D3AA00",
"$	c #4A3C00",
"%	c #9A9F50",
"&	c #BFBA73",
"*	c #B9A857",
"=	c #907B15",
"-	c #5E5301",
";	c #696910",
">	c #BDBE99",
",	c #FAE79A",
"'	c #544D27",
")	c #9EA04D",
"!	c #EDE6CB",
"~	c #E6DDB8",
"{	c #CABA76",
"]	c #BBA857",
"^	c #B6A24D",
"/	c #8B730C",
"(	c #6B5700",
"_	c #6B6708",
":	c #242312",
"<	c #BAAE60",
"[	c #E8E0BE",
"}	c #C8B871",
"|	c #AB963A",
"1	c #A08A28",
"2	c #97801B",
"3	c #695600",
"4	c #8B8522",
"5	c #D4C68C",
"6	c #967F1A",
"7	c #8F7711",
"8	c #887009",
"9	c #7A6400",
"0	c #AF9A41",
"a	c #9F8927",
"b	c #8E7610",
"c	c #876F07",
"d	c #806800",
"e	c #6D5900",
"f	c #595001",
"g	c #9D8624",
"h	c #786200",
"i	c #745F00",
"j	c #655300",
"k	c #856D05",
"l	c #725D00",
"m	c #705C00",
"n	c #504901",
"o	c #6F5A00",
"p	c #564C01",
"q	c #766000",
"r	c #5F5100",
"s	c #4A4401",
"t	c #403D01",
"u	c #5A5001",
"v	c #695700",
"w	c #655400",
"x	c #584D01",
"                ",
"           .+@#$",
"     %&*=-;>,'  ",
"   )!~{]^/((_:  ",
"  <[}^|12/333   ",
" 45^|16789333   ",
" 0|a6bcd9e3333  ",
"fg6bcdhie33333  ",
"jk8dhle(333333  ",
"j(mme(33333(((  ",
"n333333333(em(  ",
" 3333333(eoim3  ",
" p3333(eomq9(   ",
"  r3(eemi99e3   ",
"   s(oiqhl(3    ",
"     tuvwx      "};
