/* XPM */
static char * filter_xpm[] = {
"16 16 45 1",
" 	c None",
".	c #000000",
"+	c #FFFFFF",
"@	c #E1E1E1",
"#	c #C8C8C8",
"$	c #E7E7E7",
"%	c #F4F4F4",
"&	c #ADADAD",
"*	c #B2B2B2",
"=	c #7E7E7E",
"-	c #666666",
";	c #EBEBEB",
">	c #C7C7C7",
",	c #D7D7D7",
"'	c #C9C9C9",
")	c #ABABAB",
"!	c #ACACAC",
"~	c #A9A9A9",
"{	c #7C7C7C",
"]	c #707070",
"^	c #0B0B0B",
"/	c #D6D6D6",
"(	c #AEAEAE",
"_	c #B3B3B3",
":	c #A4A4A4",
"<	c #9A9A9A",
"[	c #7F7F7F",
"}	c #616161",
"|	c #BEBEBE",
"1	c #B8B8B8",
"2	c #929292",
"3	c #DBDBDB",
"4	c #C1C1C1",
"5	c #CBCBCB",
"6	c #9C9C9C",
"7	c #8F8F8F",
"8	c #757575",
"9	c #DDDDDD",
"0	c #A2A2A2",
"a	c #7D7D7D",
"b	c #CACACA",
"c	c #919191",
"d	c #858585",
"e	c #8A8A8A",
"f	c #999999",
"                ",
"                ",
" .............. ",
" .+@##@$%&**=-. ",
" .+$;>,')!~{]-. ",
"  ^+%/(,_:<[}.  ",
"   .+;>|1<[2.   ",
"    .345678.    ",
"    .%9*0a .    ",
"     .b<c}.     ",
"      .d-.      ",
"      .e-.      ",
"      .f-.      ",
"      .f-.      ",
"      ....      ",
"                "};
