/* XPM */
static char * filter_xpm[] = {
"18 18 103 2",
"  	c None",
". 	c #7B7B7B",
"+ 	c #686868",
"@ 	c #666666",
"# 	c #767676",
"$ 	c #828282",
"% 	c #929292",
"& 	c #AFAFAF",
"* 	c #707070",
"= 	c #757575",
"- 	c #919191",
"; 	c #A5A5A5",
"> 	c #ADADAD",
", 	c #B3B3B3",
"' 	c #CCCCCC",
") 	c #E2E2E2",
"! 	c #EFEFEF",
"~ 	c #D9D9D9",
"{ 	c #9C9C9C",
"] 	c #7E7E7E",
"^ 	c #727272",
"/ 	c #7D7D7D",
"( 	c #A0A0A0",
"_ 	c #999999",
": 	c #9B9B9B",
"< 	c #A6A6A6",
"[ 	c #A7A7A7",
"} 	c #B2B2B2",
"| 	c #CBCBCB",
"1 	c #F7F7F7",
"2 	c #F6F6F6",
"3 	c #DDDDDD",
"4 	c #BFBFBF",
"5 	c #5D5D5D",
"6 	c #656565",
"7 	c #979797",
"8 	c #959595",
"9 	c #A3A3A3",
"0 	c #A8A8A8",
"a 	c #B8B8B8",
"b 	c #D1D1D1",
"c 	c #E8E8E8",
"d 	c #FAFAFA",
"e 	c #EAEAEA",
"f 	c #D4D4D4",
"g 	c #585858",
"h 	c #6B6B6B",
"i 	c #858585",
"j 	c #989898",
"k 	c #B5B5B5",
"l 	c #E4E4E4",
"m 	c #E5E5E5",
"n 	c #D3D3D3",
"o 	c #B6B6B6",
"p 	c #4F4F4F",
"q 	c #5A5A5A",
"r 	c #6E6E6E",
"s 	c #808080",
"t 	c #8E8E8E",
"u 	c #909090",
"v 	c #AAAAAA",
"w 	c #BEBEBE",
"x 	c #DADADA",
"y 	c #888888",
"z 	c #6A6A6A",
"A 	c #464646",
"B 	c #262626",
"C 	c #4A4A4A",
"D 	c #777777",
"E 	c #868686",
"F 	c #737373",
"G 	c #8D8D8D",
"H 	c #535353",
"I 	c #2F2F2F",
"J 	c #F3F3F3",
"K 	c #C0C0C0",
"L 	c #9D9D9D",
"M 	c #5C5C5C",
"N 	c #333333",
"O 	c #515151",
"P 	c #FCFCFC",
"Q 	c #ACACAC",
"R 	c #8C8C8C",
"S 	c #545454",
"T 	c #2D2D2D",
"U 	c #525252",
"V 	c #E7E7E7",
"W 	c #5F5F5F",
"X 	c #565656",
"Y 	c #838383",
"Z 	c #2A2A2A",
"` 	c #5E5E5E",
" .	c #EDEDED",
"..	c #7C7C7C",
"+.	c #242424",
"@.	c #8B8B8B",
"#.	c #F2F2F2",
"$.	c #939393",
"%.	c #232323",
"&.	c #646464",
"*.	c #E1E1E1",
"=.	c #252525",
"-.	c #4C4C4C",
"        . + @ + # $ % &             ",
"    * = - ; > , ' ) ! ~ { ] +       ",
"^ / ( _ : < [ } | ) 1 2 3 4 . 5     ",
"6 [ < 7 8 9 0 a b c d e f 4 0 g     ",
"h i [ [ : j 9 k ' l 1 m n o / p     ",
"  q r s t u { v w n x k y z A B     ",
"    C D E r @ z F $ G / H I         ",
"      g 0 J e K L L s M N           ",
"        O , P m Q R S T             ",
"          U & V _ W B               ",
"            X ~ Y Z                 ",
"            `  ...+.                ",
"            W d @.+.                ",
"            W #.$.%.                ",
"            &.*.> =.                ",
"              O -.                  ",
"                                    ",
"                                    "};
