/* XPM */
static char * firewall_udp_punchable_xpm[] = {
"16 16 115 2",
"  	c None",
". 	c #FFFF00",
"+ 	c #FFFF01",
"@ 	c #F3E682",
"# 	c #88DE63",
"$ 	c #8EEA1C",
"% 	c #8DE720",
"& 	c #8DE427",
"* 	c #8EE81E",
"= 	c #8DE52A",
"- 	c #8EE821",
"; 	c #FEFB0E",
"> 	c #FCF813",
", 	c #FDF85F",
"' 	c #F8CD4B",
") 	c #EBB6B6",
"! 	c #8DE81F",
"~ 	c #8DE423",
"{ 	c #8CDF2B",
"] 	c #8BD53D",
"^ 	c #8AD739",
"/ 	c #8BE22D",
"( 	c #60DA33",
"_ 	c #8BDB31",
": 	c #F6DF2E",
"< 	c #F8EA39",
"[ 	c #F7E562",
"} 	c #EFBFBF",
"| 	c #FDF11D",
"1 	c #8EE820",
"2 	c #89B95F",
"3 	c #89C750",
"4 	c #8AC756",
"5 	c #8BDB3F",
"6 	c #8BD450",
"7 	c #8BDA35",
"8 	c #FAF014",
"9 	c #F6DF3C",
"0 	c #F4DB68",
"a 	c #F3DB8F",
"b 	c #C7C700",
"c 	c #8A7E21",
"d 	c #FBBDBD",
"e 	c #545302",
"f 	c #81A94F",
"g 	c #834A52",
"h 	c #513339",
"i 	c #50303C",
"j 	c #6D535D",
"k 	c #8AD148",
"l 	c #8DE325",
"m 	c #545303",
"n 	c #51471C",
"o 	c #504429",
"p 	c #877656",
"q 	c #A59324",
"r 	c #534545",
"s 	c #F59494",
"t 	c #EEB157",
"u 	c #000000",
"v 	c #81B253",
"w 	c #52343B",
"x 	c #53A141",
"y 	c #69AE4F",
"z 	c #4F3538",
"A 	c #6F572B",
"B 	c #8DD939",
"C 	c #A17E52",
"D 	c #A1825E",
"E 	c #1B1813",
"F 	c #A17B7B",
"G 	c #544444",
"H 	c #E19191",
"I 	c #ED97AB",
"J 	c #84BE57",
"K 	c #53384A",
"L 	c #67AF53",
"M 	c #87BF61",
"N 	c #8ABB63",
"O 	c #8DC469",
"P 	c #F3A094",
"Q 	c #F3BE9E",
"R 	c #362D29",
"S 	c #AA8888",
"T 	c #4C3737",
"U 	c #E7A0A7",
"V 	c #F0ACD2",
"W 	c #8BC173",
"X 	c #502C46",
"Y 	c #68A03E",
"Z 	c #8BB257",
"` 	c #8DB359",
" .	c #8BC963",
"..	c #52433E",
"+.	c #9B7A7A",
"@.	c #390000",
"#.	c #FF0000",
"$.	c #E30000",
"%.	c #8E841C",
"&.	c #531212",
"*.	c #6B8921",
"=.	c #6C841C",
"-.	c #382727",
";.	c #87C860",
">.	c #FC3131",
",.	c #FD3D3D",
"'.	c #FEF8F8",
").	c #550000",
"!.	c #AA0000",
"~.	c #522B2B",
"{.	c #1D0000",
"].	c #83841C",
"^.	c #FFB9B9",
"/.	c #020000",
"(.	c #6FA723",
". + + @ # $ $ $ % & * = - ; > , ",
". . ' ) ! $ ~ { ] ^ / ( _ : < [ ",
". + } | $ 1 2 3 4 5 6 7 8 9 0 a ",
"b c d . e f g h i j k l m n o p ",
"q r s t u v w x y z A B u C D E ",
"F G H I u J K L M N u O u P Q R ",
"S T U V u W X Y Z ` u  .u u u ..",
"+.@.#.$.u %.&.*.%.=.-.;.u >.,.'.",
"#.).u u !.%.~.u u {.].%.u #.#.^.",
"#.#.#.#.#.#.%.%.%.%.%.#.#.#.#.#.",
"/.u u u u u %.%.%.%.u u u u u u ",
"u #.#.#.#.u %.(.%.%.u #.u #.#.#.",
"u #.#.#.#.u %.(.(.%.u #.u #.#.#.",
"u #.#.#.#.u %.(.(.%.u #.u #.#.#.",
"u u u u u u %.(.(.%.u u u u u u ",
"#.#.u #.#.u %.(.(.%.u #.#.#.#.#."};
