/* XPM */
static char * firewall_xpm[] = {
"16 16 121 2",
"  	c None",
". 	c #FFFF00",
"+ 	c #FFFF01",
"@ 	c #F3E682",
"# 	c #F1E3B3",
"$ 	c #FEF80B",
"% 	c #FEF21B",
"& 	c #FFFC05",
"* 	c #FDF323",
"= 	c #FFFB0C",
"- 	c #FEFB0E",
"; 	c #FCF813",
"> 	c #FDF85F",
", 	c #F8CD4B",
"' 	c #EBB6B6",
") 	c #FEFC09",
"! 	c #FDF113",
"~ 	c #FAE425",
"{ 	c #F7CB54",
"] 	c #F6D148",
"^ 	c #F9EB2A",
"/ 	c #FAD44D",
"( 	c #F8DA36",
"_ 	c #F6DF2E",
": 	c #F8EA39",
"< 	c #F7E562",
"[ 	c #EFBFBF",
"} 	c #FDF11D",
"| 	c #FFFA0A",
"1 	c #F386A8",
"2 	c #F4A882",
"3 	c #F5A891",
"4 	c #F8DB58",
"5 	c #F9C882",
"6 	c #F8D840",
"7 	c #FAF014",
"8 	c #F6DF3C",
"9 	c #F4DB68",
"0 	c #F3DB8F",
"a 	c #F9E43C",
"b 	c #FBBDBD",
"c 	c #FEFB06",
"d 	c #DF5E80",
"e 	c #ED8594",
"f 	c #F499AB",
"g 	c #F291B6",
"h 	c #F5BAD1",
"i 	c #F6C16F",
"j 	c #FDEF16",
"k 	c #FEF90A",
"l 	c #F3D755",
"m 	c #F2CE7D",
"n 	c #F3D59C",
"o 	c #F8DD37",
"p 	c #FAD1D1",
"q 	c #F59494",
"r 	c #EEB157",
"s 	c #F484A3",
"t 	c #DF7589",
"u 	c #F69EB3",
"v 	c #F3A4D2",
"w 	c #F39EBF",
"x 	c #EF9FA8",
"y 	c #FAC361",
"z 	c #FDD549",
"A 	c #F8CE57",
"B 	c #F2BD7C",
"C 	c #F2C48D",
"D 	c #F4D4AC",
"E 	c #F2B9B9",
"F 	c #FCCCCC",
"G 	c #E19191",
"H 	c #ED97AB",
"I 	c #ED82A1",
"J 	c #E69294",
"K 	c #F9AAE0",
"L 	c #EDA2D0",
"M 	c #EE94AE",
"N 	c #F68BB2",
"O 	c #FB8EBD",
"P 	c #FCA2C2",
"Q 	c #F3AD9C",
"R 	c #F3A094",
"S 	c #F3BE9E",
"T 	c #F6CCB8",
"U 	c #FFCCCC",
"V 	c #E6A5A5",
"W 	c #E7A0A7",
"X 	c #F0ACD2",
"Y 	c #E79197",
"Z 	c #F899DB",
"` 	c #F284D4",
" .	c #F06D82",
"..	c #F97395",
"+.	c #FE779A",
"@.	c #FE9EA9",
"#.	c #F7ADB3",
"$.	c #ED8989",
"%.	c #FBA1A1",
"&.	c #F8938E",
"*.	c #F8C9BA",
"=.	c #E9B8B8",
"-.	c #FF0000",
";.	c #F4AFBC",
">.	c #FA3737",
",.	c #FD1414",
"'.	c #FCB1B1",
").	c #EEAAAA",
"!.	c #F6A4A4",
"~.	c #FC3131",
"{.	c #FD3D3D",
"].	c #FEF8F8",
"^.	c #F2BEC0",
"/.	c #F68181",
"(.	c #FFB9B9",
"_.	c #020000",
":.	c #000000",
"<.	c #160000",
"[.	c #360000",
"}.	c #130000",
"|.	c #0B0000",
". + + @ # + . . $ % & * = - ; > ",
". . , ' ) . ! ~ { ] ^ / ( _ : < ",
". + [ } . | 1 2 3 4 5 6 7 8 9 0 ",
". a b . c d e f g h i j k l m n ",
"o p q r s t u v w x y z A B C D ",
"E F G H I J K L M N O P Q R S T ",
"U V W X Y Z `  ...+.@.#.$.%.&.*.",
"=.-.-.-.;.-.>.,.-.-.'.).!.~.{.].",
"-.-.-.^.-.-./.-.-.-.-.-.-.-.-.(.",
"-.-.-.-.-.-.-.-.-.-.-.-.-.-.-.-.",
"_.:.:.:.:._.<.[.}.:.:.:.:.:.:.:.",
":.-.-.-.-.-.|.-.-.-.-.-.:.-.-.-.",
":.-.-.-.-.-.:.-.-.-.-.-.:.-.-.-.",
":.-.-.-.-.-.:.-.-.-.-.-.:.-.-.-.",
":.:.:.:.:.:.:.:.:.:.:.:.:.:.:.:.",
"-.-.:.-.-.-.-.-.-.-.:.-.-.-.-.-."};
