/* XPM */
static char * firewall_xpm[] = {
"16 16 96 2",
"  	c None",
". 	c #FFFFFF",
"+ 	c #FFFF00",
"@ 	c #FFFF01",
"# 	c #F3E682",
"$ 	c #F1E3B3",
"% 	c #FEF511",
"& 	c #FEF120",
"* 	c #FFF32C",
"= 	c #FFFD07",
"- 	c #FFFD16",
"; 	c #F8CD4B",
"> 	c #EBB6B6",
", 	c #FEFC09",
"' 	c #FFFE03",
") 	c #F69FBB",
"! 	c #FEF819",
"~ 	c #F99CA7",
"{ 	c #FFFE01",
"] 	c #FFD36F",
"^ 	c #EFBFBF",
"/ 	c #FDF11D",
"( 	c #FFFA0A",
"_ 	c #F385A9",
": 	c #F598A8",
"< 	c #FB9BBF",
"[ 	c #FAE73E",
"} 	c #FBB1D9",
"| 	c #FAE024",
"1 	c #FEFB0A",
"2 	c #F9E43C",
"3 	c #FBBDBD",
"4 	c #FEFB06",
"5 	c #DF5E80",
"6 	c #F18490",
"7 	c #FD9FBB",
"8 	c #F28BB4",
"9 	c #F5B8DC",
"0 	c #F3B169",
"a 	c #F4D844",
"b 	c #F8DD37",
"c 	c #FAD1D1",
"d 	c #F59494",
"e 	c #EEB157",
"f 	c #F484A3",
"g 	c #DF7589",
"h 	c #FCA9B9",
"i 	c #F4A7DA",
"j 	c #F39EBF",
"k 	c #EF9DA4",
"l 	c #FEE12C",
"m 	c #FFFE02",
"n 	c #F2B585",
"o 	c #EDB3B3",
"p 	c #F2B9B9",
"q 	c #FCCCCC",
"r 	c #E19191",
"s 	c #ED97AB",
"t 	c #ED82A1",
"u 	c #E69294",
"v 	c #F9AAE0",
"w 	c #ECA5D1",
"x 	c #ED99A0",
"y 	c #F88AB7",
"z 	c #FF8FCD",
"A 	c #FFA7CD",
"B 	c #F3AFAF",
"C 	c #F48181",
"D 	c #FFCCCC",
"E 	c #E6A5A5",
"F 	c #E7A0A7",
"G 	c #F0ACD2",
"H 	c #E79197",
"I 	c #F899DB",
"J 	c #F18AE1",
"K 	c #E89FAB",
"L 	c #FAA2D3",
"M 	c #FFA6D7",
"N 	c #FFC4CD",
"O 	c #F9B0B6",
"P 	c #ED8989",
"Q 	c #FDAFAF",
"R 	c #E9B8B8",
"S 	c #FF0000",
"T 	c #F4AFBC",
"U 	c #FCD5D5",
"V 	c #EEAAAA",
"W 	c #F8ACAC",
"X 	c #F2BEC0",
"Y 	c #F3B1B1",
"Z 	c #020000",
"` 	c #000000",
" .	c #160000",
"..	c #360000",
"+.	c #130000",
"@.	c #0B0000",
". + @ @ # $ @ + + % & + * = - . ",
". + + ; > , + ' @ ) + ! ~ { ] . ",
". + @ ^ / + ( _ : < [ } | + 1 . ",
". + 2 3 + 4 5 6 7 8 9 0 + @ a . ",
". b c d e f g h i j k l m n o . ",
". p q r s t u v w x y z A B C . ",
". D E F G H I J K L M N O P Q . ",
". R S S S T S S S S S U V W S . ",
". S S S X S S Y S S S S S S S . ",
". S S S S S S S S S S S S S S . ",
". Z ` ` ` ` Z  ...+.` ` ` ` ` . ",
". ` S S S S S @.S S S S S ` S . ",
". ` S S S S S ` S S S S S ` S . ",
". ` S S S S S ` S S S S S ` S . ",
". ` ` ` ` ` ` ` ` ` ` ` ` ` ` . ",
". S S ` S S S S S S S ` S S S . "};
