/* XPM */
static char * firewall_udp_xpm[] = {
"16 16 114 2",
"  	c None",
". 	c #FFFF00",
"+ 	c #FFFF01",
"@ 	c #F3E682",
"# 	c #F1E3B3",
"$ 	c #FEF80B",
"% 	c #FEF21B",
"& 	c #FFFC05",
"* 	c #FDF323",
"= 	c #FFFB0C",
"- 	c #FEFB0E",
"; 	c #FCF813",
"> 	c #FDF85F",
", 	c #F8CD4B",
"' 	c #EBB6B6",
") 	c #FEFC09",
"! 	c #FDF113",
"~ 	c #FAE425",
"{ 	c #F7CB54",
"] 	c #F6D148",
"^ 	c #F9EB2A",
"/ 	c #FAD44D",
"( 	c #F8DA36",
"_ 	c #F6DF2E",
": 	c #F8EA39",
"< 	c #F7E562",
"[ 	c #EFBFBF",
"} 	c #FDF11D",
"| 	c #FFFA0A",
"1 	c #F386A8",
"2 	c #F4A882",
"3 	c #F5A891",
"4 	c #F8DB58",
"5 	c #F9C882",
"6 	c #F8D840",
"7 	c #FAF014",
"8 	c #F6DF3C",
"9 	c #F4DB68",
"0 	c #F3DB8F",
"a 	c #C7C700",
"b 	c #8A7E21",
"c 	c #FBBDBD",
"d 	c #545302",
"e 	c #DF5E80",
"f 	c #834A52",
"g 	c #513339",
"h 	c #50303C",
"i 	c #6D535D",
"j 	c #F6C16F",
"k 	c #FDEF16",
"l 	c #545303",
"m 	c #51471C",
"n 	c #504429",
"o 	c #877656",
"p 	c #A59324",
"q 	c #534545",
"r 	c #F59494",
"s 	c #EEB157",
"t 	c #000000",
"u 	c #DF7589",
"v 	c #52343B",
"w 	c #6C495D",
"x 	c #A2697F",
"y 	c #4F3538",
"z 	c #6F572B",
"A 	c #FDD549",
"B 	c #A17E52",
"C 	c #A1825E",
"D 	c #1B1813",
"E 	c #A17B7B",
"F 	c #544444",
"G 	c #E19191",
"H 	c #ED97AB",
"I 	c #E69294",
"J 	c #53384A",
"K 	c #9E6C8A",
"L 	c #EE94AE",
"M 	c #F68BB2",
"N 	c #FCA2C2",
"O 	c #F3A094",
"P 	c #F3BE9E",
"Q 	c #362D29",
"R 	c #AA8888",
"S 	c #4C3737",
"T 	c #E7A0A7",
"U 	c #F0ACD2",
"V 	c #F899DB",
"W 	c #502C46",
"X 	c #A04856",
"Y 	c #F97395",
"Z 	c #FE779A",
"` 	c #F7ADB3",
" .	c #52433E",
"..	c #9B7A7A",
"+.	c #390000",
"@.	c #FF0000",
"#.	c #E30000",
"$.	c #531212",
"%.	c #A80D0D",
"&.	c #AA0000",
"*.	c #382727",
"=.	c #EEAAAA",
"-.	c #FC3131",
";.	c #FD3D3D",
">.	c #FEF8F8",
",.	c #550000",
"'.	c #522B2B",
").	c #1D0000",
"!.	c #FFB9B9",
"~.	c #020000",
"{.	c #160000",
"].	c #360000",
"^.	c #130000",
"/.	c #0B0000",
". + + @ # + . . $ % & * = - ; > ",
". . , ' ) . ! ~ { ] ^ / ( _ : < ",
". + [ } . | 1 2 3 4 5 6 7 8 9 0 ",
"a b c . d e f g h i j k l m n o ",
"p q r s t u v w x y z A t B C D ",
"E F G H t I J K L M t N t O P Q ",
"R S T U t V W X Y Z t ` t t t  .",
"..+.@.#.t @.$.%.@.&.*.=.t -.;.>.",
"@.,.t t &.@.'.t t ).#.@.t @.@.!.",
"@.@.@.@.@.@.@.@.@.@.@.@.@.@.@.@.",
"~.t t t t ~.{.].^.t t t t t t t ",
"t @.@.@.@.@./.@.@.@.@.@.t @.@.@.",
"t @.@.@.@.@.t @.@.@.@.@.t @.@.@.",
"t @.@.@.@.@.t @.@.@.@.@.t @.@.@.",
"t t t t t t t t t t t t t t t t ",
"@.@.t @.@.@.@.@.@.@.t @.@.@.@.@."};
