/* XPM */
static char *firewall_punchable[] = {
/* width height num_colors chars_per_pixel */
"    16    16      129            2",
/* colors */
".. c #ffff00",
".# c #ffff01",
".a c #f3f382",
".b c #a3da5c",
".c c #86d11d",
".d c #a8e215",
".e c #a8e019",
".f c #a8de1f",
".g c #a8e117",
".h c #85cf23",
".i c #a8e019",
".j c #fefd0e",
".k c #fcfc13",
".l c #fdfc5f",
".m c #f8e44b",
".n c #ebd2b6",
".o c #a8e118",
".p c #a7dd1c",
".q c #85cc23",
".r c #a5d136",
".s c #a5d331",
".t c #a6dc25",
".u c #85ca29",
".v c #a5d62a",
".w c #f6ef2e",
".x c #f8f539",
".y c #f7f262",
".z c #efdabf",
".A c #fdf81d",
".B c #a3b358",
".C c #a4c349",
".D c #84c334",
".E c #85cb2b",
".F c #77c528",
".G c #85ca27",
".H c #faf814",
".I c #f6ef3c",
".J c #f4ed68",
".K c #f3ed8f",
".L c #f9f23c",
".M c #fbd8bd",
".N c #a8e017",
".O c #81b531",
".P c #a1b350",
".Q c #a4bc59",
".R c #84bf3a",
".S c #a4ca68",
".T c #77c427",
".U c #a7dd1d",
".V c #fefc0a",
".W c #f3ea55",
".X c #f2e57d",
".Y c #f3e99c",
".Z c #f8ee37",
".0 c #fae6d1",
".1 c #f5ad94",
".2 c #eecd57",
".3 c #a4b356",
".4 c #81b933",
".5 c #a5bf5c",
".6 c #a3c169",
".7 c #84c13c",
".8 c #a2bf58",
".9 c #77c426",
"#. c #a7d432",
"## c #f8e557",
"#a c #f2d87c",
"#b c #f2dd8d",
"#c c #f4e8ac",
"#d c #f2d4b9",
"#e c #fce3cc",
"#f c #e1a991",
"#g c #edb1ab",
"#h c #a1b255",
"#i c #9eb950",
"#j c #a6c46e",
"#k c #a1c168",
"#l c #a1ba5a",
"#m c #84be39",
"#n c #77c12c",
"#o c #a7c162",
"#p c #f3c99c",
"#q c #f3bb94",
"#r c #f3d99e",
"#s c #f6e3b8",
"#t c #ffe3cc",
"#u c #e6c1a5",
"#v c #e7bba7",
"#w c #f0c8d2",
"#x c #9fb951",
"#y c #85c040",
"#z c #a3b369",
"#A c #a2a749",
"#B c #a6ab50",
"#C c #85ba36",
"#D c #77c22b",
"#E c #a5c55c",
"#F c #ed9f89",
"#G c #fbbca1",
"#H c #f8ac8e",
"#I c #f8e1ba",
"#J c #e9d4b8",
"#K c #ff0000",
"#L c #f4cbbc",
"#M c #a86e15",
"#N c #85ad26",
"#O c #a7791d",
"#P c #86a31d",
"#Q c #77c32b",
"#R c #eec6aa",
"#S c #f6c0a4",
"#T c #fc2f31",
"#U c #fd3d3d",
"#V c #fefcf8",
"#W c #f2d9c0",
"#X c #84bb32",
"#Y c #ffd4b9",
"#Z c #78b720",
"#0 c #020000",
"#1 c #000000",
"#2 c #60a31d",
"#3 c #65a31d",
"#4 c #69b720",
"#5 c #6cbf22",
"#6 c #476e15",
"#7 c #70c122",
"#8 c #426e15",
"#9 c #72bf22",
"a. c #68b720",
/* pixels */
"...#.#.a.b.c.d.d.e.f.g.h.i.j.k.l",
".....m.n.o.d.p.q.r.s.t.u.v.w.x.y",
"...#.z.A.d.i.B.C.D.E.F.G.H.I.J.K",
"...L.M...N.O.P.Q.R.S.T.U.V.W.X.Y",
".Z.0.1.2.3.4.5.6.7.8.9#.###a#b#c",
"#d#e#f#g#h#i#j#k#l#m#n#o#p#q#r#s",
"#t#u#v#w#x#y#z#A#B#C#D#E#F#G#H#I",
"#J#K#K#K#L#M#N#O#M#P#Q#R#S#T#U#V",
"#K#K#K#W#K#K#X#M#P#P#P#K#K#K#K#Y",
"#K#K#K#K#K#K#P#P#P#Z#M#K#K#K#K#K",
"#0#1#1#1#1#0#2#3#4#5#1#1#1#1#1#1",
"#1#K#K#K#K#1#6#P#7#P#8#K#1#K#K#K",
"#1#K#K#K#K#1#8#P#9#M#1#K#1#K#K#K",
"#1#K#K#K#K#1#8#P#Z#M#1#K#1#K#K#K",
"#1#1#1#1#1#1#8#5a.#8#1#1#1#1#1#1",
"#K#K#1#K#K#1#M#Z#P#M#1#K#K#K#K#K"
};
