/* XPM */
static char * firewall_tcp_xpm[] = {
"16 16 123 2",
"  	c None",
". 	c #FFFF00",
"+ 	c #FFFF01",
"@ 	c #F3E682",
"# 	c #F1E3B3",
"$ 	c #FEF80B",
"% 	c #FEF21B",
"& 	c #FFFC05",
"* 	c #FDF323",
"= 	c #FFFB0C",
"- 	c #FEFB0E",
"; 	c #FCF813",
"> 	c #FDF85F",
", 	c #F8CD4B",
"' 	c #EBB6B6",
") 	c #FEFC09",
"! 	c #FDF113",
"~ 	c #FAE425",
"{ 	c #F7CB54",
"] 	c #F6D148",
"^ 	c #F9EB2A",
"/ 	c #FAD44D",
"( 	c #F8DA36",
"_ 	c #F6DF2E",
": 	c #F8EA39",
"< 	c #F7E562",
"[ 	c #EFBFBF",
"} 	c #FDF11D",
"| 	c #FFFA0A",
"1 	c #F386A8",
"2 	c #F4A882",
"3 	c #F5A891",
"4 	c #F8DB58",
"5 	c #F9C882",
"6 	c #F8D840",
"7 	c #FAF014",
"8 	c #F6DF3C",
"9 	c #F4DB68",
"0 	c #F3DB8F",
"a 	c #8E8E00",
"b 	c #534C14",
"c 	c #533F3F",
"d 	c #555500",
"e 	c #8D8B03",
"f 	c #DF5E80",
"g 	c #B86773",
"h 	c #513339",
"i 	c #50303C",
"j 	c #BF91A3",
"k 	c #F6C16F",
"l 	c #8C850C",
"m 	c #545303",
"n 	c #51471C",
"o 	c #6C5C37",
"p 	c #D8BD8A",
"q 	c #C1AC2A",
"r 	c #A68B8B",
"s 	c #000000",
"t 	c #9E763A",
"u 	c #BE677F",
"v 	c #AE5B6A",
"w 	c #1B1114",
"x 	c #875B74",
"y 	c #87576A",
"z 	c #1B1213",
"A 	c #DEAD56",
"B 	c #544718",
"C 	c #6E5C26",
"D 	c #A17E52",
"E 	c #50412F",
"F 	c #6D5E4C",
"G 	c #F2B9B9",
"H 	c #FCCCCC",
"I 	c #ED97AB",
"J 	c #ED82A1",
"K 	c #4C3031",
"L 	c #A67195",
"M 	c #EDA2D0",
"N 	c #EE94AE",
"O 	c #F68BB2",
"P 	c #FB8EBD",
"Q 	c #543640",
"R 	c #A27368",
"S 	c #F3A094",
"T 	c #876957",
"U 	c #52443D",
"V 	c #FFCCCC",
"W 	c #E6A5A5",
"X 	c #F0ACD2",
"Y 	c #E79197",
"Z 	c #523349",
"` 	c #A1588D",
" .	c #F06D82",
"..	c #F97395",
"+.	c #FE779A",
"@.	c #FE9EA9",
"#.	c #52393B",
"$.	c #1C1010",
"%.	c #DCB2A5",
"&.	c #E9B8B8",
"*.	c #FF0000",
"=.	c #F4AFBC",
"-.	c #8E0000",
";.	c #370C0C",
">.	c #FD1414",
",.	c #E30000",
"'.	c #720000",
").	c #E09D9D",
"!.	c #4F3838",
"~.	c #A46D6D",
"{.	c #FC3131",
"].	c #FD3D3D",
"^.	c #FEF8F8",
"/.	c #F2BEC0",
"(.	c #6D3939",
"_.	c #550000",
":.	c #AA0000",
"<.	c #FFB9B9",
"[.	c #020000",
"}.	c #160000",
"|.	c #360000",
"1.	c #130000",
"2.	c #0B0000",
". + + @ # + . . $ % & * = - ; > ",
". . , ' ) . ! ~ { ] ^ / ( _ : < ",
". + [ } . | 1 2 3 4 5 6 7 8 9 0 ",
"a b c d e f g h i j k l m n o p ",
"q r s t u v w x y z A B C D E F ",
"G H s I J K L M N O P Q R S T U ",
"V W s X Y Z `  ...+.@.#.s s $.%.",
"&.*.s *.=.-.;.>.,.'.).!.~.{.].^.",
"*.*.s /.*.*.(.s s '.*._.:.*.*.<.",
"*.*.*.*.*.*.*.*.*.*.*.*.*.*.*.*.",
"[.s s s s [.}.|.1.s s s s s s s ",
"s *.*.*.*.*.2.*.*.*.*.*.s *.*.*.",
"s *.*.*.*.*.s *.*.*.*.*.s *.*.*.",
"s *.*.*.*.*.s *.*.*.*.*.s *.*.*.",
"s s s s s s s s s s s s s s s s ",
"*.*.s *.*.*.*.*.*.*.s *.*.*.*.*."};
