/* XPM */
static char * freeze_xpm[] = {
"16 16 117 2",
"  	c None",
". 	c #000000",
"+ 	c #67331A",
"@ 	c #B14F1F",
"# 	c #D35213",
"$ 	c #CC4C10",
"% 	c #A03B0B",
"& 	c #571F06",
"* 	c #180B04",
"= 	c #B75727",
"- 	c #E75D17",
"; 	c #E55913",
"> 	c #E05713",
", 	c #D75112",
"' 	c #CE4D10",
") 	c #C4480F",
"! 	c #95360B",
"~ 	c #130601",
"{ 	c #B45525",
"] 	c #E15914",
"^ 	c #CE4F21",
"/ 	c #CA4B1E",
"( 	c #DD4D17",
"_ 	c #DB4B17",
": 	c #CD4C1F",
"< 	c #C64B23",
"[ 	c #BB4512",
"} 	c #8F320B",
"| 	c #643119",
"1 	c #E15B19",
"2 	c #D85323",
"3 	c #EEE6E2",
"4 	c #EFE5E0",
"5 	c #CF5328",
"6 	c #CE5023",
"7 	c #EAE1DC",
"8 	c #F8F3F1",
"9 	c #D64F2A",
"0 	c #B43F0E",
"a 	c #4E1A05",
"b 	c #AA4516",
"c 	c #DD4D16",
"d 	c #D65320",
"e 	c #F0E3DD",
"f 	c #FFFFFF",
"g 	c #F5EAE5",
"h 	c #F0EBE8",
"i 	c #FCFCFC",
"j 	c #FAF3EF",
"k 	c #D9522D",
"l 	c #B33F0D",
"m 	c #882E0A",
"n 	c #CA4B0F",
"o 	c #D84D14",
"p 	c #D65223",
"q 	c #F5F0EE",
"r 	c #F5DED3",
"s 	c #D95C37",
"t 	c #D5461F",
"u 	c #B13D0D",
"v 	c #A5370B",
"w 	c #C3470E",
"x 	c #CD4C10",
"y 	c #CE4E11",
"z 	c #D25225",
"A 	c #F2EDEA",
"B 	c #F6E3DB",
"C 	c #D15C35",
"D 	c #C64115",
"E 	c #AD3B0D",
"F 	c #A1360B",
"G 	c #99370B",
"H 	c #C6480F",
"I 	c #CD461E",
"J 	c #EADDD7",
"K 	c #FDFDFD",
"L 	c #F4DDD3",
"M 	c #F8EEEA",
"N 	c #D44A25",
"O 	c #A9390D",
"P 	c #7A2807",
"Q 	c #54200A",
"R 	c #BC440F",
"S 	c #C8441F",
"T 	c #F2D9D2",
"U 	c #F5E5DE",
"V 	c #D25E36",
"W 	c #C96A41",
"X 	c #F5E8E2",
"Y 	c #F7EDE9",
"Z 	c #D84723",
"` 	c #9F350B",
" .	c #3A1303",
"..	c #923A13",
"+.	c #C24014",
"@.	c #D24A25",
"#.	c #D64B25",
"$.	c #C74316",
"%.	c #BF471B",
"&.	c #D04F2A",
"*.	c #D24C28",
"=.	c #CD421C",
"-.	c #712407",
";.	c #120703",
">.	c #8E3A17",
",.	c #AF3E0F",
"'.	c #AE3C0D",
").	c #A93A0D",
"!.	c #A6380C",
"~.	c #9E350B",
"{.	c #6D2307",
"].	c #0C0300",
"^.	c #4B1906",
"/.	c #842C09",
"(.	c #9E340A",
"_.	c #752707",
":.	c #361103",
"                                ",
"          . . . . . .           ",
"        . + @ # $ % & .         ",
"      * = - ; > , ' ) ! ~       ",
"    . { ] ^ / ( _ : < [ } .     ",
"  . | 1 2 3 4 5 6 7 8 9 0 a .   ",
"  . b c d e f g h i j k l m .   ",
"  . n o _ p q f f r s t u v .   ",
"  . w x y z A f f B C D E F .   ",
"  . G H I J K L L f M N O P .   ",
"  . Q R S T U V W X Y Z `  ..   ",
"    . ..+.@.#.$.%.&.*.=.-..     ",
"      ;.>.,.'.E ).!.~.{.].      ",
"        . ^./.F (._.:..         ",
"          . . . . . .           ",
"                                "};
