/* XPM */
static char *go_back[] = {
/* width height num_colors chars_per_pixel */
"    16    16      152            2",
/* colors */
".. c None",
".# c #000205",
".a c #000925",
".b c #00102c",
".c c #001e68",
".d c #00205b",
".e c #00286e",
".f c #00358c",
".g c #0051b6",
".h c #010407",
".i c #010508",
".j c #061f39",
".k c #06316a",
".l c #07316a",
".m c #082940",
".n c #0f7bcf",
".o c #0f80cf",
".p c #114a7e",
".q c #115bb1",
".r c #135d98",
".s c #1558ab",
".t c #155d98",
".u c #1755a1",
".v c #1a6aa2",
".w c #1e648b",
".x c #2261ac",
".y c #2262ac",
".z c #239ddc",
".A c #248bd7",
".B c #2585c6",
".C c #2686c6",
".D c #279ce2",
".E c #2a75bc",
".F c #2a75be",
".G c #2a9ee1",
".H c #2b76bb",
".I c #2c7cc1",
".J c #2ca7e1",
".K c #2da4e0",
".L c #2ea3df",
".M c #2f67bb",
".N c #2f7ac1",
".O c #3070bd",
".P c #3292d4",
".Q c #3296da",
".R c #3398db",
".S c #359adb",
".T c #3695db",
".U c #36a5e0",
".V c #3783c8",
".W c #37a9e2",
".X c #389cd4",
".Y c #399ed3",
".Z c #3aabe6",
".0 c #3ca8e1",
".1 c #3e8acb",
".2 c #3f89cb",
".3 c #3fafe4",
".4 c #4098d5",
".5 c #40abdf",
".6 c #41a7df",
".7 c #4293d0",
".8 c #42abe0",
".9 c #43a6dc",
"#. c #4485c7",
"## c #44ace0",
"#a c #45b0e3",
"#b c #47a5de",
"#c c #49b3e4",
"#d c #4a90cc",
"#e c #4a90cd",
"#f c #4aace2",
"#g c #4aaee5",
"#h c #4abeed",
"#i c #4b85c6",
"#j c #4cb3e7",
"#k c #4eb3e7",
"#l c #54c1ed",
"#m c #58bbe7",
"#n c #598fc9",
"#o c #5aaedf",
"#p c #5aafdf",
"#q c #5ac3ee",
"#r c #5bb8e2",
"#s c #5ea7db",
"#t c #5ec0e7",
"#u c #5fbde8",
"#v c #60d3f7",
"#w c #62a4dc",
"#x c #62bfe8",
"#y c #62c1e8",
"#z c #63cff2",
"#A c #65bde6",
"#B c #66d3f7",
"#C c #67b6e2",
"#D c #68c5e8",
"#E c #68cdf2",
"#F c #69b6e2",
"#G c #69cef2",
"#H c #6aaadd",
"#I c #6bcaee",
"#J c #6bd2f3",
"#K c #6ed6f6",
"#L c #6fd3f4",
"#M c #70dbfc",
"#N c #71c9ee",
"#O c #71d2f3",
"#P c #71d3f3",
"#Q c #72d2f2",
"#R c #72e2ff",
"#S c #73d1f0",
"#T c #73dafd",
"#U c #74d2f1",
"#V c #74d4f5",
"#W c #75d7f5",
"#X c #75daf9",
"#Y c #76d4f4",
"#Z c #76dbf9",
"#0 c #77d7f5",
"#1 c #77dbf9",
"#2 c #78dcf9",
"#3 c #79daf6",
"#4 c #7cd4f0",
"#5 c #7edbf5",
"#6 c #7fd8f1",
"#7 c #7fdff8",
"#8 c #80caea",
"#9 c #80dbf6",
"a. c #80dcf6",
"a# c #80e4fc",
"aa c #81dcf8",
"ab c #84ceee",
"ac c #84e2fa",
"ad c #86e1fc",
"ae c #86e2f7",
"af c #89e1f8",
"ag c #89e2f8",
"ah c #8ae1f8",
"ai c #8be8fd",
"aj c #8fecfc",
"ak c #92e3f9",
"al c #93e2f7",
"am c #95e4f8",
"an c #95e7fa",
"ao c #96e5f7",
"ap c #9deeff",
"aq c #f0f2f7",
"ar c #f3f4f8",
"as c #f9f8f9",
"at c #fffefa",
"au c #fffffe",
"av c #ffffff",
/* pixels */
".........a.d.s.u.u.s.d.a........",
".....#.c.I#r#U#7#5#S#r.I.c.#....",
"...#.f#paf#6#t#b#x#D#4ah#o.f.#..",
"...e#Cal#y.K#s#w.J.3#c#uao#F.e..",
".b#dak#m.W.4av#H.z.0.U.L.5am#e.b",
".l#8#I#a.7asav#k#k#k#k#k#k#kab.k",
".xad#f.2aravavavavavavavav.6aa.y",
".N#N#nauavavavavavavavavav.9an.F",
".1#A#iavavavavavavavavavav.oap.V",
".H#T.D#.auavavavavavavavav.n#M.E",
".p#l#B.G.Oaqav.M.n.n.n.n.n.P#v.p",
".j#g#L#K.Z.qat.M.A.S.R.Q.T#G#j.j",
"...t#E#V#1#h.M.M#R#2#Z#Xa##J.r..",
"...h.C#P#9ac#z.g#W#Q#Ya.#O.B.h..",
".....i.v#q#0ajaiagae#3#q.v.i....",
".........m.w.X##.8.Y.w.m........"
};
