/* XPM */
static char *hungup[] = {
/* width height num_colors chars_per_pixel */
"    16    16      140            2",
/* colors */
".. c None",
".# c #030000",
".a c #060000",
".b c #070000",
".c c #070001",
".d c #090001",
".e c #0d0001",
".f c #1d0002",
".g c #220002",
".h c #2a0001",
".i c #2b0000",
".j c #2c0002",
".k c #300104",
".l c #3a0001",
".m c #3c0105",
".n c #3e0000",
".o c #510307",
".p c #570000",
".q c #570003",
".r c #5c0000",
".s c #5d0206",
".t c #650001",
".u c #680001",
".v c #6c0209",
".w c #780b11",
".x c #7b0008",
".y c #85030d",
".z c #870003",
".A c #880006",
".B c #8d171d",
".C c #9b0610",
".D c #9d030e",
".E c #9f1720",
".F c #a60f12",
".G c #b10912",
".H c #b50306",
".I c #b60408",
".J c #b61e13",
".K c #b82324",
".L c #bb0509",
".M c #bd0608",
".N c #c00609",
".O c #c21e1f",
".P c #c41b12",
".Q c #c61418",
".R c #c70c16",
".S c #c7373a",
".T c #cb1d26",
".U c #cf171c",
".V c #d20812",
".W c #d20c10",
".X c #d41c1f",
".Y c #d61f20",
".Z c #df4645",
".0 c #e1392f",
".1 c #e14f4d",
".2 c #e6211d",
".3 c #e71019",
".4 c #e7171c",
".5 c #e73d44",
".6 c #e81c1e",
".7 c #e93029",
".8 c #ea3126",
".9 c #ea5238",
"#. c #eb3128",
"## c #ec4442",
"#a c #ec4b34",
"#b c #ed2725",
"#c c #ee5437",
"#d c #ef3526",
"#e c #ef5a57",
"#f c #ef5b58",
"#g c #f03f46",
"#h c #f1423b",
"#i c #f37571",
"#j c #f44234",
"#k c #f55337",
"#l c #f61d21",
"#m c #f63024",
"#n c #f63434",
"#o c #f66060",
"#p c #f72422",
"#q c #f73229",
"#r c #f7573d",
"#s c #f76442",
"#t c #f83925",
"#u c #f83f24",
"#v c #f83f2c",
"#w c #f8563c",
"#x c #f8623f",
"#y c #f9151f",
"#z c #f95a5d",
"#A c #f95e40",
"#B c #f96b6b",
"#C c #fa6b46",
"#D c #fb2721",
"#E c #fb4d2e",
"#F c #fb5132",
"#G c #fb5b3b",
"#H c #fc5135",
"#I c #fc5a34",
"#J c #fc5d39",
"#K c #fc5e36",
"#L c #fc6641",
"#M c #fc673f",
"#N c #fc6844",
"#O c #fc6944",
"#P c #fc6f46",
"#Q c #fd2d29",
"#R c #fd613d",
"#S c #fd8b61",
"#T c #fd907b",
"#U c #fd9268",
"#V c #fd956c",
"#W c #fd958a",
"#X c #fe3a2e",
"#Y c #fe583a",
"#Z c #fe6f48",
"#0 c #fe7048",
"#1 c #fe754c",
"#2 c #fe764e",
"#3 c #fe976d",
"#4 c #ff2524",
"#5 c #ff4832",
"#6 c #ff4f46",
"#7 c #ff5542",
"#8 c #ff6249",
"#9 c #ff744c",
"a. c #ff7950",
"a# c #ff7a4e",
"aa c #ff7d5c",
"ab c #ff8063",
"ac c #ff9b71",
"ad c #ffa67d",
"ae c #ffa88c",
"af c #ffae96",
"ag c #ffb08b",
"ah c #ffb292",
"ai c #ffb491",
"aj c #ffc5a6",
/* pixels */
"...............l.B.5#e#f##.E.g..",
"...........h.T#Waead#V#U#3ac#h.m",
".........t#zaj#S#P#L#O#N#9#c.J#b",
".......u#Bai#M#Z#2#1#Ca..9.H#s.O",
".....q#oag#K#0#A.Y#ja##a.I#x.X.d",
"...##gah#I#0#r.D...y.0.P#k.U.a..",
"...Gaf#J#R#w.C.......x#..Q.e....",
".i#iaa#F#G.R...........k.c......",
".w#T#E#Y.8.f....................",
".Sab#u#H#d.v....................",
".1#8#t#v#5.7.A.b................",
".Z#7#m#X#q.M.2.s................",
".K#6#D#Q.L#p.6.j................",
".o#n#4.N#l.4.n..................",
".#.F.W#y.3.p....................",
"...#.z.V.r......................"
};
