/* XPM */
static char * icon_xpm[] = {
"48 48 3 1",
" 	c None",
".	c #080F91",
"+	c #7979B2",
"                         ...++                  ",
"                    ........++++++              ",
"              ..............++++++++++          ",
"         ...................++++++++++++++      ",
"    ................++++....++++++++++++++++++  ",
"............+++++   +++ ....++      ++++++++++++",
".....+++++..       +++  ....++         ++ ++++++",
"..++      ..++++        ....++...   ...++.....++",
"..        ..     +++    ....++.........++.....++",
"..        ..         +++....++.......  ++     ++",
"..        ..         +++....++  ..     ++     ++",
"..        ..          ++....++  ..     ++     ++",
"..        ..          ++....++  ..     ++     ++",
"..        ..          ++....++  ..     ++     ++",
"..        ..          ++....++  ..     ++     ++",
"..        ..          ++....++  ..     ++     ++",
"..        ..          ++....++  ..     ++     ++",
"..        ..          ++....++  ..     ++     ++",
"..        ..          ++....++  ..     ++     ++",
"..+       ..          ++....++  ..     ++    .++",
"............+++      +++....++......++++++++++++",
"...................+++++....++++++++++++++++++++",
"..  ........................++++++++++++++++..++",
"..        ..................+++++++++++++     ++",
"..        ..     +++........++++++     ++     ++",
"..        ..          + ....++  ..     ++     ++",
"..        ..          ++....++  ..     ++     ++",
"..        ..          ++....++  ..     ++     ++",
"..        ..          ++....++  ..     ++     ++",
"..        ..          ++....++  ..     ++     ++",
"..        ..          ++....++  ..     ++     ++",
"..        ..         +++....++  ..     ++     ++",
"..        ..      +++   ....++....     ++     ++",
"..        ..  +++       ....++.........++     ++",
"...      ...+   ++      ....++.    ....++....+++",
"......++  ..       +++  ....++         ++..+++++",
" .......  ..          ++....++         ++.++++++",
"    ........       +++  ....++         +++++++  ",
"      .......   +++     ....++...     ++++++    ",
"        .......+        ....++    .+++++++      ",
"          ........      ....++    .+++++        ",
"             .......+   ....++  .++++++         ",
"               .............++.++++++           ",
"                 ...........+++++++             ",
"                   .........++++++              ",
"                      ......++++                ",
"                        ....++                  ",
"                           .+                   "};
