/* XPM */
static char *icon[] = {
/* width height ncolors chars_per_pixel */
"16 16 30 1",
/* colors */
"  c #7979B2",
". c #070D81",
"X c #2B2D6C",
"o c #5356A7",
"O c #050A61",
"+ c #5E5E8A",
"@ c #6C6C9E",
"# c #050850",
"$ c #6C6DAE",
"% c #1E2168",
"& c #2E329C",
"* c #080F91",
"= c #131774",
"- c #060C71",
"; c #6061AB",
": c #212698",
"> c #454683",
", c #1F2378",
"< c #434363",
"1 c #2A2B5B",
"2 c #515177",
"3 c #131775",
"4 c #5F609B",
"5 c #464893",
"6 c #202588",
"7 c #444573",
"8 c #525497",
"9 c #040851",
"0 c #141985",
"q c None",
/* pixels */
"qqqqqqqO.o2qqqqq",
"q9O*&6,5*o22  2q",
"0qq=qqqq*oOqO8&;",
"OqqOqqq@*o##q2q2",
"OqqOqqq2*oqqq2q2",
"OqqOqqq2*oqqq2q2",
"0qq-qqq+*o##q+q4",
"-9O.**:&*o   @74",
"OqqOqqqX*o1qq2q2",
"OqqOqqq2*oqqq2q2",
"OqqOqqq<*o#qq2q2",
".qq-qqqq*oqqO8%@",
"q9..qqqq*oqqq$@q",
"qqq9.3qq*oq> qqq",
"qqqqqq.**o$2qqqq",
"qqqqqqqqO5qqqqqq"
};
