/* XPM */
static char *icon[] = {
/* width height ncolors chars_per_pixel */
"32 32 32 1",
/* colors */
"  c #7979B2",
". c #070D81",
"X c #5356A7",
"o c #050A61",
"O c #5E5E8A",
"+ c #393B80",
"@ c #383B7F",
"# c #6C6C9E",
"$ c #1E2058",
"% c #050850",
"& c #6C6DAE",
"* c #2E329C",
"= c #525287",
"- c #080F91",
"; c #060C71",
": c #212698",
"> c #5E5E8B",
", c #434363",
"< c #1D2058",
"1 c #515177",
"2 c #131775",
"3 c #202588",
"4 c #1E2268",
"5 c #525387",
"6 c #525497",
"7 c #383970",
"8 c #37396F",
"9 c #6062AB",
"0 c #474AA3",
"q c #212798",
"w c #2A2C5B",
"e c None",
/* pixels */
"eeeeeeeeeeeeeeee%-* eeeeeeeeeeee",
"eeeeeeeeeeooo.----*   #11eeeeeee",
"eeeeee-------:**--*         eeee",
"oo;-----XXX$e= ,--* eeee      #1",
"-:3711+-eeeee1ee--* eeeeee wXX9 ",
"-<eeeee-eeee1eee--* --oo-- *--* ",
"-eeeeee-eeeeee  --* o..oee eeee ",
"-eeeeee-eeeeee, --* eooeee eeee ",
"-eeeeee-eeeeeee --* eooeee eeee ",
"-eeeeee-eeeeeee --* eooeee eeee ",
"-eeeeee-eeeeeee --* eooeee eeee ",
"-eeeeee-eeeeeee --* eooeee eeee ",
"-<eeeee-eeeeeee --* eooeee eeew ",
"-:oooo;-11eeee> --* o..o11 >119 ",
"-;;---------qXXX--*          99 ",
"-eeeee%-----------*        ,eew ",
"-eeeeee-eeee1422--* 168eee eeee ",
"-eeeeee-eeeeeee>--* eooeee eeee ",
"-eeeeee-eeeeeee --* eooeee eeee ",
"-eeeeee-eeeeeee --* eooeee eeee ",
"-eeeeee-eeeeee, --* eooeee eeee ",
"-eeeeee-eeee11ee--* o.oeee eeee ",
"-%eeee%-ee>,eeee--* .oo.-- wee, ",
"--oo1e%-eeeee1ee--* eeeeee *qX  ",
"eo;--%%-eeeeeee1--* eeeeee 0  #1",
"eeee----eee1,eee--* ooeeee   ,ee",
"eeeeee;---@eeeee--* eeeX  #1eeee",
"eeeeeeee%---o7ee--* ee5&  eeeeee",
"eeeeeeeeeeo.------* 0  >eeeeeeee",
"eeeeeeeeeeee%-----*   Oeeeeeeeee",
"eeeeeeeeeeeeeeeo--* 1eeeeeeeeeee",
"eeeeeeeeeeeeeeeeee*,eeeeeeeeeeee"
};
