/* XPM */
static char * f3_xpm[] = {
"16 16 46 1",
" 	c None",
".	c #30D32B",
"+	c #2FD32A",
"@	c #98DC8C",
"#	c #B5E4AE",
"$	c #B2E1B1",
"%	c #86CE74",
"&	c #99CE98",
"*	c #53BB16",
"=	c #43B709",
"-	c #7AC85D",
";	c #8DCD7B",
">	c #B2E1A9",
",	c #AAD9A7",
"'	c #49B60E",
")	c #95BC81",
"!	c #99D786",
"~	c #40B40A",
"{	c #62BE33",
"]	c #A8DFA1",
"^	c #47B80E",
"/	c #46B013",
"(	c #82CE62",
"_	c #47BA0C",
":	c #48B710",
"<	c #5CBD27",
"[	c #46B710",
"}	c #97D890",
"|	c #75C755",
"1	c #4ABD0D",
"2	c #60BE35",
"3	c #B0DDAC",
"4	c #BEE7BB",
"5	c #8EC97C",
"6	c #3DB906",
"7	c #53C011",
"8	c #8ACF7A",
"9	c #5DBE29",
"0	c #4DAF15",
"a	c #6EB752",
"b	c #AA5319",
"c	c #89CD7D",
"d	c #72C85C",
"e	c #97D18D",
"f	c #A95319",
"g	c #AA541B",
"         .      ",
"         +      ",
"        @+#     ",
"       $++%     ",
".     &*+=-     ",
".+;>  ,'+++)    ",
" !+~{]+^++/     ",
"  (+_:<++[}     ",
"   |++1++234    ",
"  5+6++++++7+8  ",
".+++9++0++++++a.",
"      bc+++de   ",
"     f  ++      ",
"    ff   +.     ",
"  gff     +     ",
"   f            "};
