/* XPM */
static char * upnp_xpm[] = {
"16 16 5 1",
" 	c None",
".	c #FFFFFF",
"+  c #801bff",
"@	c #858585",
"#	c #3A3A3A",
"                ",
"                ",
"                ",
"        +++     ",
"      +++++     ",
"     ++++++@@@@ ",
"    +++++++     ",
" ###+++++++     ",
" ###+++++++     ",
"    +++++++     ",
"     ++++++@@@@ ",
"      +++++     ",
"        +++     ",
"                ",
"                ",
"                "};
