/* XPM */
static char * no_firewall_xpm[] = {
"16 16 18 1",
" 	c None",
".	c #C7C7C7",
"+	c #686868",
"@	c #262626",
"#	c #050505",
"$	c #1D1D00",
"%	c #888800",
"&	c #D3D300",
"*	c #FAFA00",
"=	c #474747",
"-	c #646400",
";	c #FFFF00",
">	c #1A1A00",
",	c #000000",
"'	c #171700",
")	c #3F3F00",
"!	c #242400",
"~	c #060600",
"    .+@##@+.    ",
"   +$%&**&%$+   ",
"  =-*;;;;;;*-=  ",
" +-;;;;;;;;;;-+ ",
".>,,,,,;;,,,,,'.",
"+),,,,,,,,,,,,$+",
"@!,,,,,;;,,,,,~@",
"#*,,,,;;;;,,,,*#",
"#*;;;;;;;;;;;;*#",
"@&;;;;;;;;;;;;&@",
"+%;;,;;;;;;,;;%+",
".$*;;,,,,,,;;*$.",
" +-;;;,,,,;;;-+ ",
"  =-*;;;;;;*-=  ",
"   +$%&**&%$+   ",
"    .+@##@+.    "};
