/* XPM */
static char *no_listening[] = {
/* width height num_colors chars_per_pixel */
"    16    16       72            2",
/* colors */
".. c None",
".# c #0d0101",
".a c #0e0202",
".b c #0e0203",
".c c #0e0303",
".d c #0e0304",
".e c #2e0305",
".f c #2f0305",
".g c #2f0407",
".h c #300407",
".i c #300609",
".j c #30080b",
".k c #5f0007",
".l c #630008",
".m c #770009",
".n c #84000a",
".o c #8d000b",
".p c #95020d",
".q c #b00a13",
".r c #bf0e17",
".s c #c10e17",
".t c #dc161e",
".u c #dc1821",
".v c #e81921",
".w c #e8212a",
".x c #e8222b",
".y c #e9252d",
".z c #e9262e",
".A c #eb1a22",
".B c #ec252d",
".C c #ed1b23",
".D c #ed1c24",
".E c #ed2028",
".F c #ed2129",
".G c #ed252d",
".H c #ed2f37",
".I c #ed3038",
".J c #ee2f37",
".K c #ee373f",
".L c #ee3840",
".M c #ee3b43",
".N c #ef3d45",
".O c #ef464e",
".P c #f04b53",
".Q c #f0535b",
".R c #f0565f",
".S c #f05962",
".T c #f15056",
".U c #f1595f",
".V c #f1636c",
".W c #f16770",
".X c #f16c75",
".Y c #f26e77",
".Z c #f26f78",
".0 c #f48c92",
".1 c #f5888d",
".2 c #f69397",
".3 c #f79a9e",
".4 c #f79b9f",
".5 c #f79ea2",
".6 c #f7a2a6",
".7 c #f7a3a7",
".8 c #f7a4a8",
".9 c #f7a5a9",
"#. c #f7aaaf",
"## c #f8a8ac",
"#a c #f8aeb2",
"#b c #f8b0b4",
"#c c #fef7f8",
"#d c #fef9f9",
"#e c #fefafa",
"#f c #ffffff",
/* pixels */
".........j.k.n.o.o.n.k.j........",
".....d.l.p.r.u.B.B.u.s.p.l.c....",
"...c.m.q.z.Q.X.Z.Z.X.Q.y.q.m.b..",
"...l.q.I.V.W.Y.0.0.Y.W.V.H.q.l..",
".g.p.x.R.S#.#e#f#f#b.S.S.R.w.p.i",
".k.s.M.P.7#f#f#f#a.P.P.P.P.M.r.k",
".n.t.K.O#d#f#f##.N.N.N.9.O.L.t.n",
".o.A.D.U#f#f.6.J.J.J.8#f.U.D.A.o",
".o.A.C.T#f.4.E.F.F.5#f#f.T.C.A.o",
".n.t.C.G.2.C.C.C.3#f#f#c.G.C.t.n",
".k.s.C.C.C.C.C.3#f#f#f.1.C.C.s.k",
".e.p.v.C.C.C.2#f#f#c.1.C.C.v.p.h",
"...l.q.C.C.C.G.T.T.G.C.C.C.q.l..",
"...#.m.q.v.C.C.C.C.C.C.v.q.m.a..",
".....#.l.p.s.t.A.A.t.s.p.l.a....",
".........e.k.n.o.o.n.k.f........"
};
