/* XPM */
static char *offline[] = {
/* columns rows colors chars-per-pixel */
"32 16 39 1",
"  c opaque",
". c #0f0f0d",
"X c #5d594f",
"o c #625e54",
"O c #646056",
"+ c #6a655b",
"@ c #6c685e",
"# c #716c62",
"$ c #78756b",
"% c #7d786e",
"& c #7e7a70",
"* c #807d73",
"= c #df421e",
"- c #8a867c",
"; c #8c8981",
": c #938e84",
"> c #97938a",
", c #9a958b",
"< c #9f9c93",
"1 c #a09d94",
"2 c #a6a29b",
"3 c #aaa7a0",
"4 c #b1ada4",
"5 c #b4b1aa",
"6 c #bdbab3",
"7 c #c4c2bc",
"8 c #c8c5bf",
"9 c #cecac3",
"0 c #d1d0cc",
"q c #e1dfdb",
"w c #e2e1dd",
"e c #e8e7e4",
"r c #eae8e3",
"t c #edebe9",
"y c #f0eeeb",
"u c #f2f0ed",
"i c #f3f2f0",
"p c #f9f9f8",
"a c None",
/* pixels */
"aaaaaaaaaaaaaaaaaaaaaaaaaaaaaaaa",
"aaaaaaaaaaaaaaaaaaaaaaaaaaaaaaaa",
"aaaaaaaaaaaaaaaaaaaaaaaaaaaaaaaa",
"aaaaaaaaa  aa==aa==aa  aaaaaaaaa",
"aaaaaa   ,& a==aa==a 7*   aaaaaa",
"aaaaa *57r* aa====aa r*,6; aaaaa",
"a    *wy2r* aa====aa y*5p7*    a",
"a rrrrut-t* aaa==aaa t*<irwrrr a",
"a **$$65%q$ aaa==aaa 0*:91**** a",
"a    $;2#9$ aa====aa 3*&<*@    a",
"aaaaa.O-#4@ aa====aa >*o+X aaaaa",
"aaaaaa ..,O a==aa==a -*   aaaaaa",
"aaaaaaaaa..aa==aa==aa. aaaaaaaaa",
"aaaaaaaaaaaaaaaaaaaaaaaaaaaaaaaa",
"aaaaaaaaaaaaaaaaaaaaaaaaaaaaaaaa",
"aaaaaaaaaaaaaaaaaaaaaaaaaaaaaaaa"
};
