/* XPM */
static char * offline_xpm[] = {
"32 16 57 1",
" 	c None",
".	c #000000",
"+	c #DF421E",
"@	c #989389",
"#	c #807D74",
"$	c #C6C2BA",
"%	c #817D73",
"&	c #B7B3AA",
"*	c #C4C2BD",
"=	c #EAE8E3",
"-	c #9C978D",
";	c #BCB9B2",
">	c #8D8981",
",	c #E2E1DD",
"'	c #F0EFEC",
")	c #AAA7A0",
"!	c #F0EEEB",
"~	c #B2B0AB",
"{	c #F9F9F8",
"]	c #C5C3BD",
"^	c #F2F0ED",
"/	c #EBEAE6",
"(	c #8A857B",
"_	c #ECEBE8",
":	c #EEECEA",
"<	c #9F9C93",
"[	c #F3F2F0",
"}	c #E8E7E4",
"|	c #E3E1DD",
"1	c #78756B",
"2	c #BEBBB5",
"3	c #B3B1AA",
"4	c #7D786E",
"5	c #E1DFDB",
"6	c #D1D0CC",
"7	c #938E84",
"8	c #C8C5BF",
"9	c #A7A298",
"0	c #8C8981",
"a	c #A6A29B",
"b	c #726D63",
"c	c #CECAC3",
"d	c #A7A49E",
"e	c #7E7A70",
"f	c #A09D94",
"g	c #6C685E",
"h	c #0F0F0D",
"i	c #656056",
"j	c #8B877E",
"k	c #706C62",
"l	c #B1ADA4",
"m	c #97938A",
"n	c #625E54",
"o	c #6A655B",
"p	c #5D594F",
"q	c #646056",
"r	c #8B877D",
"                                ",
"                                ",
"                                ",
"         ..  ++  ++  ..         ",
"      ...@#. ++  ++ .$#...      ",
"     .%&*=#.  ++++  .=#-;>.     ",
" ....#,')=#.  ++++  .!#~{]#.... ",
" .====^/(_#.   ++   .:#<[}|===. ",
" .##1123451.   ++   .6#789####. ",
" ....10abc1.  ++++  .d#ef%g.... ",
"     hijklg.  ++++  .m#nop.     ",
"      .hh@q. ++  ++ .r#...      ",
"         hh  ++  ++  h.         ",
"                                ",
"                                ",
"                                "};
