/* XPM */
static char * online_xpm[] = {
"32 16 56 1",
" 	c None",
".	c #000000",
"+	c #989389",
"@	c #807D74",
"#	c #C6C2BA",
"$	c #817D73",
"%	c #B7B3AA",
"&	c #C4C2BD",
"*	c #EAE8E3",
"=	c #9C978D",
"-	c #BCB9B2",
";	c #8D8981",
">	c #E2E1DD",
",	c #F0EFEC",
"'	c #AAA7A0",
")	c #F0EEEB",
"!	c #B2B0AB",
"~	c #F9F9F8",
"{	c #C5C3BD",
"]	c #F2F0ED",
"^	c #EBEAE6",
"/	c #8A857B",
"(	c #ECEBE8",
"_	c #EEECEA",
":	c #9F9C93",
"<	c #F3F2F0",
"[	c #E8E7E4",
"}	c #E3E1DD",
"|	c #78756B",
"1	c #BEBBB5",
"2	c #B3B1AA",
"3	c #7D786E",
"4	c #E1DFDB",
"5	c #D1D0CC",
"6	c #938E84",
"7	c #C8C5BF",
"8	c #A7A298",
"9	c #8C8981",
"0	c #A6A29B",
"a	c #726D63",
"b	c #CECAC3",
"c	c #A7A49E",
"d	c #7E7A70",
"e	c #A09D94",
"f	c #6C685E",
"g	c #0F0F0D",
"h	c #656056",
"i	c #8B877E",
"j	c #706C62",
"k	c #B1ADA4",
"l	c #97938A",
"m	c #625E54",
"n	c #6A655B",
"o	c #5D594F",
"p	c #646056",
"q	c #8B877D",
"                                ",
"                                ",
"                                ",
"              .. ..             ",
"           ...+@.#@...          ",
"          .$%&*@.*@=-;.         ",
" .........@>,'*@.)@!~{@........ ",
" .*********]^/(@._@:<[}*******. ",
" .@@@@@@@||1234|.5@678@@@@@@@@. ",
" .........|90ab|.c@de$f........ ",
"          ghijkf.l@mno.         ",
"           .gg+p.q@...          ",
"              gg g.             ",
"                                ",
"                                ",
"                                "};
