/* XPM */
static char *online[] = {
/* columns rows colors chars-per-pixel */
"32 16 38 1",
"  c opaque",
". c #0f0f0d",
"X c #5d594f",
"o c #625e54",
"O c #646056",
"+ c #6a655b",
"@ c #6c685e",
"# c #716c62",
"$ c #78756b",
"% c #7d786e",
"& c #7e7a70",
"* c #807d73",
"= c #8a867c",
"- c #8c8981",
"; c #938e84",
": c #97938a",
"> c #99948a",
", c #9f9c93",
"< c #a09d94",
"1 c #a6a29b",
"2 c #aaa7a0",
"3 c #b1ada4",
"4 c #b4b1aa",
"5 c #bdbab3",
"6 c #c5c2bc",
"7 c #c8c5bf",
"8 c #cecac3",
"9 c #d1d0cc",
"0 c #e1dfdb",
"q c #e2e1dd",
"w c #e8e7e4",
"e c #eae8e3",
"r c #edebe9",
"t c #f0eeeb",
"y c #f2f0ed",
"u c #f3f2f0",
"i c #f9f9f8",
"p c None",
/* pixels */
"pppppppppppppppppppppppppppppppp",
"pppppppppppppppppppppppppppppppp",
"pppppppppppppppppppppppppppppppp",
"pppppppppppppp  p  ppppppppppppp",
"ppppppppppp   >* 6*   pppppppppp",
"pppppppppp *46e* e*>5- ppppppppp",
"p         *qy2e& y*4i6&        p",
"p eeeeeeeeeye=r* r*,uewweeeeee p",
"p *******$$54%0$ 9*;71******** p",
"p         $-1#8$ 1*%,*@        p",
"pppppppppp.O=#3@ >*o+X ppppppppp",
"ppppppppppp ..:O =*   pppppppppp",
"pppppppppppppp..p. ppppppppppppp",
"pppppppppppppppppppppppppppppppp",
"pppppppppppppppppppppppppppppppp",
"pppppppppppppppppppppppppppppppp"
};
