/* XPM */
static char *pause-icon[] = {
/* width height num_colors chars_per_pixel */
"    16    16       66            2",
/* colors */
".. c None",
".# c #470007",
".a c #500008",
".b c #520008",
".c c #570008",
".d c #570009",
".e c #5a0008",
".f c #650109",
".g c #660009",
".h c #670009",
".i c #670109",
".j c #6a0107",
".k c #6a0109",
".l c #6c0108",
".m c #6d0108",
".n c #6e0107",
".o c #6f0107",
".p c #6f0108",
".q c #700107",
".r c #710107",
".s c #730107",
".t c #740107",
".u c #750107",
".v c #760107",
".w c #780107",
".x c #780206",
".y c #790206",
".z c #7a0206",
".A c #7b0206",
".B c #7b2c2a",
".C c #7d0205",
".D c #7d0206",
".E c #7e0205",
".F c #7f0205",
".G c #820204",
".H c #820205",
".I c #830204",
".J c #840204",
".K c #870204",
".L c #870303",
".M c #880303",
".N c #890303",
".O c #8c0303",
".P c #8e0303",
".Q c #900302",
".R c #910303",
".S c #920302",
".T c #950302",
".U c #950403",
".V c #970301",
".W c #980301",
".X c #9d0907",
".Y c #9d0b09",
".Z c #a31411",
".0 c #a41613",
".1 c #a61c19",
".2 c #a71e1b",
".3 c #a7201d",
".4 c #a81f1c",
".5 c #b94542",
".6 c #bc4e4c",
".7 c #bd504d",
".8 c #bd514e",
".9 c #bd524f",
"#. c #fcfcfc",
"## c #ffffff",
/* pixels */
"................................",
"...B.8.8.6.6.6.6.6.6.6.6.6.7.9.5",
"...0.3.2.1.1.1.1.1.1.1.1.1.2.4.Z",
"...V.Y.Y.X.X.X.X.X.X.X.X.X.Y.Y.W",
"...Q.T.U.T.T###..T.Q###..T.T.T.S",
"...O.R.R.R.R###..R.O###..R.R.R.P",
"...M.O.O.O.O###..O.L###..O.O.O.N",
"...I.K.K.K.K###..K.G###..K.K.K.J",
"...E.H.H.H.H###..H.C###..H.H.H.F",
"...y.D.D.D.D###..D.x###..D.D.D.A",
"...t.w.w.w.w###..w.s###..w.w.w.v",
"...o.s.s.s.s###..s.n###..s.s.s.r",
"...l.p.p.p.p###..p.j###..p.p.p.m",
"...f.k.k.k.k.k.k.k.k.k.k.k.k.k.i",
"...c.g.h.h.h.h.h.h.h.h.h.h.h.g.e",
"...#.a.d.d.d.d.d.d.d.d.d.d.d.b.#"
};
