/* XPM */
static char *star-green[] = {
/* width height num_colors chars_per_pixel */
"    16    16      154            2",
/* colors */
".. c None",
".# c #33cb4e",
".a c #33c545",
".b c #34c949",
".c c #33ca49",
".d c #30be47",
".e c #39de56",
".f c #38d750",
".g c #48ee5b",
".h c #37d350",
".i c #33c749",
".j c #38d74e",
".k c #39dc54",
".l c #37d550",
".m c #2fbb48",
".n c #37d852",
".o c #45ed5a",
".p c #56f661",
".q c #4bf25f",
".r c #50f45e",
".s c #47ed5b",
".t c #4cf15c",
".u c #5ff962",
".v c #44eb5b",
".w c #2fbb47",
".x c #31bf44",
".y c #33c849",
".z c #36d34e",
".A c #3ce157",
".B c #3fe553",
".C c #6afb66",
".D c #65fa62",
".E c #5df861",
".F c #65fa65",
".G c #64fa63",
".H c #5cf860",
".I c #39db53",
".J c #33ca4a",
".K c #33cd50",
".L c #38d951",
".M c #3bde55",
".N c #4bf15d",
".O c #70fc66",
".P c #64fa64",
".Q c #70fb62",
".R c #95ff6f",
".S c #8bff6b",
".T c #83ff6f",
".U c #8dff73",
".V c #60f860",
".W c #40e758",
".X c #32c74a",
".Y c #34d04e",
".Z c #56f663",
".0 c #69fb61",
".1 c #97ff6f",
".2 c #aeff7a",
".3 c #c5ff94",
".4 c #c5ff8b",
".5 c #aeff7c",
".6 c #8dff6c",
".7 c #6cfa5f",
".8 c #3fe351",
".9 c #34cd49",
"#. c #3cdf54",
"## c #74fc64",
"#a c #b1ff73",
"#b c #bdff7a",
"#c c #c7ff97",
"#d c #d2ff9e",
"#e c #caff85",
"#f c #aaff70",
"#g c #7cfc64",
"#h c #6dfc66",
"#i c #3ee254",
"#j c #32c84d",
"#k c #44ea58",
"#l c #5ff760",
"#m c #a7ff6f",
"#n c #bdff84",
"#o c #dfffd2",
"#p c #dcffe2",
"#q c #dfffe4",
"#r c #d7ffab",
"#s c #caff97",
"#t c #a7ff6f",
"#u c #77fd64",
"#v c #43e855",
"#w c #4bf05c",
"#x c #6dfb65",
"#y c #aaff7a",
"#z c #d9ffdf",
"#A c #d9ffdf",
"#B c #d9ffdf",
"#C c #e7ffe2",
"#D c #e7ffce",
"#E c #b8ff77",
"#F c #77fc62",
"#G c #59f45b",
"#H c #3cdc55",
"#I c #80fd64",
"#J c #ccff95",
"#K c #dfffca",
"#L c #dcffe2",
"#M c #d4ffdb",
"#N c #d4ffdb",
"#O c #e9ffed",
"#P c #dcffbc",
"#Q c #b6ff7d",
"#R c #a7ff77",
"#S c #46ea58",
"#T c #33c348",
"#U c #5af55c",
"#V c #c2ff7d",
"#W c #cfffb0",
"#X c #e1ffe6",
"#Y c #cfffd7",
"#Z c #d4ffdb",
"#0 c #d7ffd7",
"#1 c #c7ff9d",
"#2 c #aaff75",
"#3 c #68fa61",
"#4 c #33c54b",
"#5 c #43e758",
"#6 c #a5ff74",
"#7 c #aeff7f",
"#8 c #d4ffaf",
"#9 c #dcffe2",
"a. c #d7ffca",
"a# c #caff98",
"aa c #aeff79",
"ab c #77fc5f",
"ac c #45e754",
"ad c #34cb4e",
"ae c #57f35b",
"af c #72fc67",
"ag c #8dff6c",
"ah c #aeff8a",
"ai c #a7ff74",
"aj c #5ff758",
"ak c #4fef57",
"al c #37d150",
"am c #35cd4c",
"an c #53f460",
"ao c #59f660",
"ap c #8fff6f",
"aq c #58f45c",
"ar c #40e04d",
"as c #39d44c",
"at c #3add56",
"au c #37d351",
"av c #33c247",
"aw c #36cf4e",
"ax c #34cd50",
/* pixels */
".................#..............",
"...............a.b.c...........K",
"...........d.e.f.g.h.i...j.k.l..",
".........m.n.o.p.q.r.s.t.u.v....",
"...w.x.y.z.A.B.C.D.E.F.G.H.I.J..",
".K.K.L.M.N.O.P.Q.R.S.T.U.V.W.X..",
".......Y.Z.0.1.2.3.4.5.6.7.8.9..",
"........#.###a#b#c#d#e#f#g#h#i..",
"....#j#k#l#m#n#o#p#q#r#s#t#u#v..",
"......#w#x#y#r#z#A#B#C#D#E#F#G..",
"......#H#I#J#K#L#M#N#O#P#Q#R#S..",
"......#T#U#V#W#X#Y#Z#0#1#2#3....",
"......#4#5#6#7#8#9a.a#aaabac....",
"........adaeafagah#Qaiajakal....",
"..........amanaoapaqarasat......",
"..............auavawax.........."
};
