/* XPM */
static char * thaw_xpm[] = {
"16 16 32 1",
" 	c None",
".	c #000000",
"+	c #77A16E",
"@	c #ACC8A9",
"#	c #709867",
"$	c #C1D6BD",
"%	c #BDD3B8",
"&	c #BFD4BB",
"*	c #C2D7BE",
"=	c #B2CBB0",
"-	c #AAC7A8",
";	c #0F1308",
">	c #AEC5A8",
",	c #AEC8AD",
"'	c #ABC7A8",
")	c #AAC6A7",
"!	c #A8C6A5",
"~	c #ADC8AD",
"{	c #A8C7A8",
"]	c #A5C4A3",
"^	c #7F9F76",
"/	c #A6BFA0",
"(	c #ABC7AA",
"_	c #A9C7A6",
":	c #AFC8AD",
"<	c #A4C3A2",
"[	c #6B9060",
"}	c #6C8562",
"|	c #5B7950",
"1	c #445B2C",
"2	c #65815C",
"3	c #506B46",
"                ",
"        .       ",
"        ..      ",
"        .+.     ",
"  .......@#.    ",
"  .$%&***=-#;   ",
"  .>,'')!~{]^.  ",
"  ./(!!_'-':<[. ",
"  .}||||||||1.  ",
"  .233333||1.   ",
"  .......|1.    ",
"        .1.     ",
"        ..      ",
"        .       ",
"                ",
"                "};
