/* XPM */
static char *upload-yellow[] = {
/* width height num_colors chars_per_pixel */
"    16    16       29            1",
/* colors */
". c #3b452e",
"# c #515733",
"a c #545934",
"b c #595b39",
"c c #626537",
"d c #8e8e3a",
"e c #9e9c3c",
"f c #ada93e",
"g c #85813e",
"h c #97913e",
"i c #9f9a3e",
"j c #bab63f",
"k c #a4a44d",
"l c #a4a553",
"m c #b7b868",
"n c #b4b573",
"o c #b8b878",
"p c #ccc53f",
"q c #d3cc3f",
"r c #ebe23f",
"s c #ccc657",
"t c #cdc860",
"u c #f2ec84",
"v c #f5f19b",
"w c #fffba7",
"x c #f9f6ba",
"y c #faf8c9",
"z c #fffef6",
"A c None",
/* pixels */
"AAAAAAAAAAAAAAAA",
"AAAAAAAA.AAAAAAA",
"AAAAAAA.ecAAAAAA",
"AAAAAA.hpecAAAAA",
"AAAAA.gjxqecAAAA",
"AAAA.gjjnzrecAAA",
"AAA.gjjd.oyrecAA",
"AA.gjjd.fcmwqecA",
"A.bcca.iufcacccc",
"AAAAA.ijlyfcAAAA",
"AAAA.ijd.kvfcAAA",
"AAA.cc#.fc#cccAA",
"AAAAAA.drtcAAAAA",
"AAAAA.djqyscAAAA",
"AAAA.ccccccccAAA",
"AAAAAAAAAAAAAAAA"
};
