/* XPM */
static char * warning_xpm[] = {
"16 16 28 1",
" 	c None",
".	c #F2E23D",
"+	c #F0D639",
"@	c #F2DF3C",
"#	c #EAB52D",
"$	c #DF5C0A",
"%	c #F2E13C",
"&	c #EAB62D",
"*	c #DF5B08",
"=	c #E04C01",
"-	c #DF5C09",
";	c #EECA34",
">	c #E04B01",
",	c #E04A00",
"'	c #DF5204",
")	c #EAB32C",
"!	c #E04B00",
"~	c #F2E03C",
"{	c #F3E43E",
"]	c #EDC934",
"^	c #E9B22B",
"/	c #E14A00",
"(	c #E9B12B",
"_	c #EAB42C",
":	c #DF5305",
"<	c #EECB35",
"[	c #EDC733",
"}	c #EDC633",
"       .+.      ",
"      @#$#%     ",
"     %&*=-;     ",
"     ;$>,')@    ",
"    @)',,!*&%   ",
"   ~&*!{{,>$;   ",
"   ]$>,{{,,')~  ",
"  @^',,{{/,!-;  ",
" %&*!,/{{/,,')~ ",
" ;$>,,/////,!-; ",
"%(',,//{{//,,'(%",
"+$=,,,,{{,,,,=$+",
"%_$::::::::::$_%",
" ~<[}}}}}}}}[<~ ",
"                ",
"                "};
